<?xml version="1.0" encoding="UTF-8" standalone="no"?>
<!DOCTYPE svg PUBLIC "-//W3C//DTD SVG 1.1//EN" "http://www.w3.org/Graphics/SVG/1.1/DTD/svg11.dtd">
<svg xmlns="http://www.w3.org/2000/svg" version="1.1" viewBox="0.00 0.00 3999.00 786.00">
<path fill="#e9b649" d="
  M 561.90 80.29
  A 0.86 0.86 0.0 0 1 561.90 81.64
  Q 553.07 88.67 542.34 97.85
  Q 511.87 123.90 486.22 156.21
  C 483.33 159.84 480.52 161.94 475.78 160.46
  Q 463.90 156.73 448.06 153.34
  C 379.81 138.70 309.80 155.46 254.68 196.44
  C 216.97 224.48 188.73 263.16 172.30 307.82
  C 157.58 347.87 154.20 391.11 161.98 432.45
  C 176.31 508.56 224.91 574.39 295.78 607.72
  Q 347.13 631.88 406.06 630.92
  C 472.79 629.83 533.27 600.30 578.84 551.32
  Q 582.45 547.43 587.12 539.87
  Q 589.85 535.44 591.09 529.13
  C 592.65 521.15 589.67 510.85 586.31 503.21
  Q 556.87 436.29 530.02 371.50
  C 523.31 355.32 509.83 347.54 492.96 345.58
  Q 466.22 342.49 447.32 339.84
  A 4.49 4.48 -17.1 0 1 444.59 338.40
  Q 441.97 335.51 440.33 331.89
  Q 435.43 321.07 429.61 306.38
  C 419.48 280.84 419.45 253.46 431.23 228.44
  Q 431.98 226.84 434.28 226.83
  Q 440.51 226.79 448.03 227.65
  Q 457.71 228.75 478.77 232.08
  Q 483.09 232.76 485.18 229.17
  Q 512.53 182.17 548.71 144.98
  Q 571.56 121.50 598.77 101.99
  Q 646.26 67.95 700.28 52.54
  Q 747.36 39.11 795.25 39.32
  Q 829.59 39.47 867.27 46.76
  Q 905.29 54.11 940.53 71.51
  Q 974.51 88.30 1006.28 111.60
  Q 1027.32 127.03 1045.11 144.75
  C 1070.32 169.85 1091.08 197.21 1107.29 228.92
  Q 1131.53 276.31 1141.41 329.28
  Q 1146.41 356.11 1146.91 380.01
  C 1147.34 400.70 1147.43 418.75 1145.15 437.49
  Q 1137.56 499.95 1107.27 556.29
  Q 1095.68 577.84 1080.11 599.30
  Q 1027.77 671.44 947.33 709.01
  Q 895.99 732.99 839.50 739.45
  C 822.07 741.45 804.82 740.93 788.85 741.05
  Q 773.54 741.18 762.21 740.13
  Q 697.19 734.13 639.30 704.22
  Q 635.66 702.34 633.28 700.11
  A 0.52 0.51 43.4 0 1 633.25 699.38
  Q 637.14 695.23 637.33 695.08
  Q 666.36 671.96 691.30 644.55
  Q 697.15 638.12 709.21 624.22
  Q 710.56 622.66 714.04 619.62
  A 2.87 2.86 34.7 0 1 716.94 619.10
  Q 742.43 628.73 770.06 631.40
  Q 809.76 635.23 848.78 626.67
  C 897.28 616.03 940.63 589.59 973.86 553.39
  C 1019.88 503.26 1042.80 433.30 1035.15 365.71
  Q 1029.76 318.16 1006.69 275.57
  Q 973.79 214.82 914.06 181.22
  C 869.44 156.12 815.41 144.83 764.56 151.29
  Q 720.01 156.96 679.27 179.53
  C 654.70 193.14 631.33 211.35 612.90 233.15
  C 604.64 242.91 599.29 252.96 603.66 266.18
  Q 605.45 271.62 608.58 278.64
  Q 638.66 346.19 663.71 408.05
  C 669.77 423.02 681.45 431.34 697.07 434.13
  C 712.93 436.97 729.16 438.48 743.75 440.52
  C 751.86 441.65 752.76 445.61 756.08 452.81
  Q 760.86 463.15 765.55 476.32
  Q 770.42 489.97 771.64 500.84
  Q 774.48 526.23 765.12 548.58
  Q 763.77 551.80 761.86 553.91
  A 3.41 3.40 24.8 0 1 758.88 555.00
  Q 755.37 554.52 714.77 548.91
  Q 712.83 548.65 710.92 549.28
  A 1.74 1.72 5.3 0 0 709.94 550.08
  Q 693.93 578.90 670.48 607.98
  Q 630.38 657.74 576.54 691.49
  Q 513.90 730.77 440.52 739.25
  C 426.01 740.93 413.76 741.02 395.43 741.03
  C 370.84 741.03 346.21 738.07 322.64 733.11
  Q 291.63 726.59 262.16 713.06
  Q 213.97 690.93 172.61 657.06
  Q 162.95 649.15 156.53 642.98
  C 146.81 633.64 135.17 622.16 126.20 611.06
  C 81.26 555.39 54.14 487.82 48.74 416.23
  C 47.55 400.49 47.91 378.37 48.05 366.26
  C 48.34 341.30 52.76 316.61 59.80 291.18
  C 69.32 256.78 85.90 224.22 105.49 194.24
  C 134.21 150.27 172.71 113.40 218.10 87.03
  Q 276.06 53.36 341.03 43.32
  Q 430.61 29.48 515.68 59.08
  Q 533.67 65.35 561.13 79.71
  A 1.14 1.10 -12.2 0 1 561.37 79.86
  L 561.90 80.29
  Z"
/>
<path fill="#e9b649" d="
  M 1521.00 288.68
  A 0.70 0.69 -90.0 0 0 1520.31 287.98
  Q 1483.91 288.04 1469.02 287.95
  C 1466.80 287.94 1467.02 285.92 1467.01 283.92
  Q 1466.98 256.24 1467.02 228.77
  A 0.77 0.77 0.0 0 1 1467.79 228.00
  Q 1584.52 227.98 1592.92 228.04
  Q 1596.82 228.07 1596.89 231.72
  C 1597.17 246.63 1597.00 281.31 1597.03 341.21
  C 1597.03 349.12 1597.56 353.19 1592.59 358.08
  Q 1588.77 361.83 1583.21 365.47
  Q 1566.12 376.67 1546.28 384.81
  Q 1518.94 396.03 1488.68 396.86
  C 1470.65 397.36 1456.45 397.33 1440.45 394.63
  C 1412.91 389.99 1386.54 375.65 1366.18 356.56
  C 1341.56 333.49 1327.29 300.00 1325.14 266.69
  Q 1324.40 255.22 1325.07 241.25
  Q 1325.83 225.27 1331.15 208.38
  Q 1341.58 175.27 1366.54 150.55
  C 1382.67 134.57 1401.30 123.51 1422.77 116.57
  Q 1464.48 103.08 1510.38 111.62
  Q 1549.87 118.98 1581.54 144.22
  Q 1585.20 147.13 1586.63 149.80
  A 1.20 1.17 41.5 0 1 1586.70 150.74
  Q 1586.24 152.03 1581.85 157.35
  Q 1552.93 192.48 1546.95 199.46
  C 1545.48 201.18 1543.31 203.79 1541.03 204.26
  A 1.83 1.78 47.9 0 1 1540.08 204.20
  Q 1537.04 203.18 1535.82 202.19
  Q 1525.60 193.96 1512.49 187.73
  C 1497.28 180.51 1480.35 178.49 1463.66 180.67
  Q 1450.81 182.35 1438.65 190.30
  C 1413.50 206.75 1402.99 235.29 1406.36 264.75
  C 1409.20 289.60 1423.61 311.29 1446.30 321.88
  C 1464.16 330.21 1485.27 330.07 1505.20 325.51
  C 1510.39 324.32 1515.37 322.16 1519.75 319.64
  A 2.51 2.49 75.1 0 0 1521.00 317.47
  L 1521.00 288.68
  Z"
/>
<path fill="#e9b649" d="
  M 1916.85 245.99
  C 1918.32 276.87 1912.00 305.50 1894.68 331.31
  C 1866.89 372.71 1824.56 394.92 1774.97 397.30
  C 1725.38 399.67 1681.13 381.60 1649.52 343.03
  C 1629.81 319.00 1620.78 291.10 1619.31 260.22
  C 1617.83 229.34 1624.16 200.70 1641.47 174.90
  C 1669.26 133.49 1711.59 111.28 1761.18 108.91
  C 1810.77 106.54 1855.03 124.61 1886.64 163.17
  C 1906.34 187.21 1915.37 215.11 1916.85 245.99
  Z
  M 1764.9408 180.0653
  A 73.17 68.83 -92.6 0 0 1699.5009 256.2823
  A 73.17 68.83 -92.6 0 0 1771.5792 326.2547
  A 73.17 68.83 -92.6 0 0 1837.0191 250.0377
  A 73.17 68.83 -92.6 0 0 1764.9408 180.0653
  Z"
/>
<path fill="#e9b649" d="
  M 3689.09 389.95
  A 0.71 0.71 0.0 0 1 3688.43 390.84
  C 3676.87 391.40 3666.80 392.03 3656.51 392.01
  Q 3639.68 391.98 3622.75 392.01
  Q 3614.54 392.03 3605.50 390.75
  Q 3604.02 390.54 3603.16 388.33
  Q 3600.01 380.22 3586.01 345.03
  C 3584.92 342.30 3583.14 341.93 3580.21 341.94
  Q 3531.79 342.07 3484.25 341.95
  Q 3481.59 341.94 3480.69 344.46
  Q 3472.47 367.40 3464.64 385.71
  Q 3463.73 387.84 3462.64 389.84
  A 2.25 2.24 14.4 0 1 3460.67 391.00
  Q 3383.04 391.00 3383.00 391.00
  Q 3380.43 390.92 3379.49 390.40
  A 0.74 0.73 -64.0 0 1 3379.17 389.46
  L 3495.44 113.98
  A 3.25 3.23 11.3 0 1 3498.43 112.00
  L 3570.15 112.00
  A 2.51 2.48 -15.8 0 1 3572.27 113.17
  Q 3572.91 114.18 3573.78 116.17
  Q 3584.33 140.28 3687.99 386.51
  Q 3688.54 387.83 3689.09 389.95
  Z
  M 3505.27 280.06
  A 0.63 0.63 0.0 0 0 3505.85 280.93
  L 3561.21 281.02
  A 0.63 0.63 0.0 0 0 3561.79 280.16
  L 3534.24 210.40
  A 0.63 0.63 0.0 0 0 3533.07 210.40
  L 3505.27 280.06
  Z"
/>
<path fill="#e9b649" d="
  M 2017.05 114.71
  L 2017.05 322.43
  A 0.57 0.57 0.0 0 0 2017.62 323.00
  L 2150.09 323.00
  A 0.93 0.93 0.0 0 1 2151.02 323.93
  L 2151.02 389.98
  A 2.00 2.00 0.0 0 1 2149.02 391.98
  Q 2024.76 392.02 1948.25 392.00
  Q 1943.79 392.00 1939.98 391.35
  A 1.18 1.18 0.0 0 1 1939.00 390.19
  L 1939.00 115.13
  A 1.63 1.62 -7.4 0 1 1940.21 113.56
  Q 1942.47 112.98 1948.50 112.99
  Q 1961.17 113.00 2007.50 113.01
  Q 2013.44 113.02 2016.19 113.64
  A 1.10 1.10 0.0 0 1 2017.05 114.71
  Z"
/>
<path fill="#e9b649" d="
  M 2172.79 391.01
  A 0.77 0.77 0.0 0 1 2172.01 390.24
  Q 2171.99 382.49 2172.01 115.51
  Q 2172.01 113.18 2174.25 113.12
  Q 2192.24 112.64 2210.19 113.31
  Q 2231.10 114.08 2243.82 114.05
  Q 2271.84 113.98 2277.45 113.95
  Q 2294.03 113.86 2303.50 114.97
  C 2334.39 118.61 2365.37 127.53 2389.88 147.31
  Q 2411.45 164.72 2423.65 190.57
  C 2435.82 216.34 2438.99 245.31 2435.13 273.92
  C 2431.74 299.05 2422.46 322.66 2405.52 341.74
  Q 2378.40 372.28 2339.14 383.89
  C 2322.22 388.89 2307.57 391.13 2290.02 391.05
  C 2278.85 391.00 2262.60 390.77 2250.01 391.33
  C 2240.57 391.75 2231.30 392.05 2222.68 391.68
  Q 2202.88 390.81 2172.79 391.01
  Z
  M 2251.86 185.13
  A 0.86 0.86 0.0 0 0 2251.03 185.99
  C 2251.00 213.56 2250.42 251.71 2251.65 284.68
  Q 2252.23 300.00 2251.98 319.00
  Q 2251.94 322.18 2254.82 322.04
  Q 2274.15 321.09 2291.44 320.90
  C 2312.20 320.66 2331.20 309.65 2343.33 293.27
  C 2350.37 283.76 2354.23 272.90 2355.52 261.24
  C 2356.77 249.89 2355.76 237.73 2351.41 227.14
  Q 2340.43 200.42 2313.58 189.44
  C 2302.95 185.08 2291.26 183.91 2280.24 184.23
  Q 2266.89 184.61 2251.86 185.13
  Z"
/>
<path fill="#e9b649" d="
  M 2535.04 284.59
  Q 2534.93 301.83 2535.06 322.93
  Q 2535.08 324.95 2537.52 324.97
  Q 2541.67 325.00 2681.22 325.02
  A 1.51 1.50 -6.2 0 1 2682.69 326.20
  Q 2682.96 327.47 2682.97 330.25
  Q 2683.12 361.86 2682.92 388.63
  Q 2682.90 391.49 2680.01 391.65
  Q 2673.28 392.00 2666.50 392.00
  Q 2533.55 392.01 2463.50 391.99
  Q 2460.72 391.99 2458.57 390.99
  A 0.99 0.98 -78.0 0 1 2457.99 390.09
  L 2457.99 115.08
  A 1.60 1.58 -5.2 0 1 2459.30 113.52
  Q 2462.21 112.99 2467.83 112.99
  Q 2495.23 113.00 2671.25 113.00
  Q 2675.50 113.00 2680.08 113.61
  A 0.69 0.68 0.1 0 1 2680.67 114.19
  Q 2681.00 116.39 2681.00 118.25
  Q 2681.04 168.70 2680.97 179.50
  C 2680.95 182.40 2678.97 181.99 2676.48 181.99
  Q 2665.17 182.01 2535.53 182.00
  A 0.53 0.52 0.0 0 0 2535.00 182.52
  L 2535.00 220.18
  A 0.83 0.82 -0.0 0 0 2535.83 221.00
  L 2667.02 221.00
  A 0.98 0.98 0.0 0 1 2668.00 221.98
  L 2668.00 283.37
  A 0.63 0.63 0.0 0 1 2667.37 284.00
  L 2535.64 284.00
  A 0.60 0.60 0.0 0 0 2535.04 284.59
  Z"
/>
<path fill="#e9b649" d="
  M 2886.79 254.86
  A 0.12 0.12 0.0 0 0 2887.00 254.78
  L 2887.00 115.19
  A 1.64 1.63 -8.0 0 1 2888.19 113.62
  Q 2889.86 113.13 2891.12 113.11
  Q 2902.07 112.90 2963.51 113.04
  Q 2966.01 113.04 2966.01 115.75
  Q 2965.98 346.20 2966.03 389.98
  A 1.97 1.97 0.0 0 1 2964.07 391.95
  Q 2915.33 392.12 2907.51 391.96
  Q 2899.63 391.79 2895.87 389.86
  Q 2893.15 388.45 2889.74 384.00
  Q 2849.46 331.54 2781.97 245.24
  A 0.43 0.43 0.0 0 0 2781.27 245.27
  Q 2780.98 245.71 2780.98 246.25
  Q 2781.01 299.50 2780.99 390.41
  A 0.59 0.59 0.0 0 1 2780.40 391.00
  L 2703.97 391.00
  A 0.97 0.97 0.0 0 1 2703.00 390.03
  L 2703.00 116.30
  A 2.54 2.53 -10.4 0 1 2704.64 113.93
  Q 2706.87 113.08 2709.29 113.07
  Q 2726.47 112.97 2761.75 112.93
  C 2769.16 112.93 2776.50 112.81 2780.72 118.29
  Q 2833.61 187.09 2886.79 254.86
  Z"
/>
<path fill="#e9b649" d="
  M 3334.85 246.92
  A 0.33 0.33 0.0 0 0 3335.03 247.41
  C 3358.49 255.35 3377.00 270.31 3382.89 294.97
  Q 3386.57 310.41 3383.76 328.18
  C 3378.35 362.47 3348.53 382.90 3316.49 388.71
  Q 3307.08 390.42 3295.75 390.96
  Q 3267.31 392.31 3250.00 391.94
  C 3238.04 391.68 3224.91 391.01 3210.33 391.01
  Q 3152.21 390.97 3140.75 391.03
  Q 3138.50 391.04 3137.47 390.89
  A 1.74 1.73 4.5 0 1 3136.00 389.18
  L 3136.00 115.21
  A 2.10 2.09 -0.6 0 1 3138.06 113.12
  Q 3160.89 112.69 3179.56 113.34
  C 3206.80 114.30 3228.25 114.25 3251.67 113.51
  Q 3275.38 112.76 3298.87 115.15
  C 3328.33 118.15 3357.69 131.74 3368.92 161.32
  Q 3371.87 169.09 3372.17 179.89
  C 3372.56 194.13 3371.38 207.29 3364.20 219.46
  Q 3354.32 236.20 3336.54 245.16
  Q 3336.34 245.27 3335.64 245.97
  Q 3335.11 246.50 3334.85 246.92
  Z
  M 3214.67 224.81
  Q 3218.39 225.20 3223.00 224.98
  Q 3241.38 224.11 3250.00 224.05
  C 3264.04 223.95 3274.12 224.83 3284.48 218.16
  Q 3295.45 211.10 3294.12 198.47
  C 3292.59 184.02 3275.87 178.19 3263.49 178.03
  Q 3250.32 177.87 3227.75 178.06
  Q 3220.66 178.12 3214.25 178.95
  A 1.60 1.60 0.0 0 0 3212.86 180.63
  Q 3214.32 203.19 3213.98 224.03
  A 0.77 0.77 0.0 0 0 3214.67 224.81
  Z
  M 3214.07 281.07
  A 1.16 1.16 0.0 0 0 3213.09 282.25
  L 3214.44 327.53
  A 1.28 1.28 0.0 0 0 3215.90 328.76
  Q 3221.12 328.02 3227.50 328.01
  Q 3247.45 327.99 3274.52 327.98
  Q 3286.54 327.98 3295.10 322.37
  C 3301.57 318.14 3306.25 311.69 3305.98 304.26
  Q 3305.61 293.87 3297.11 287.35
  C 3289.10 281.21 3279.83 280.06 3270.00 280.01
  Q 3256.81 279.95 3230.25 280.05
  Q 3220.40 280.08 3214.07 281.07
  Z"
/>
<path fill="#e9b649" d="
  M 3773.74 211.09
  A 0.24 0.24 0.0 0 0 3774.15 211.09
  Q 3783.51 194.81 3829.53 115.27
  Q 3830.84 113.00 3834.01 113.00
  Q 3878.65 112.95 3916.48 113.05
  A 1.46 1.46 0.0 0 1 3917.83 115.06
  Q 3916.62 118.02 3914.88 120.87
  Q 3847.69 231.00 3818.34 278.64
  Q 3814.66 284.61 3814.41 288.51
  Q 3813.92 296.12 3813.93 296.50
  Q 3814.04 304.76 3813.96 390.04
  A 1.46 1.46 0.0 0 1 3812.75 391.48
  Q 3810.20 391.92 3807.00 391.94
  Q 3778.07 392.05 3743.26 391.99
  Q 3736.37 391.98 3734.00 391.35
  A 1.03 1.01 -3.2 0 1 3733.30 390.74
  Q 3732.99 389.92 3733.00 387.50
  Q 3733.02 382.52 3732.98 302.00
  Q 3732.97 290.77 3729.59 282.23
  Q 3728.78 280.20 3722.79 270.46
  Q 3673.17 189.71 3635.45 126.89
  Q 3631.90 120.97 3628.79 115.48
  A 0.84 0.84 0.0 0 1 3629.16 114.31
  Q 3631.50 113.18 3634.75 113.12
  Q 3646.28 112.89 3706.54 112.98
  C 3710.74 112.98 3717.91 113.78 3720.64 117.59
  Q 3722.11 119.64 3724.16 123.39
  Q 3750.00 170.59 3773.74 211.09
  Z"
/>
<path fill="#fec627" d="
  M 3657.35 559.09
  A 0.71 0.68 -30.2 0 1 3657.71 557.85
  Q 3659.14 557.66 3660.34 556.83
  A 0.15 0.15 0.0 0 1 3660.43 556.80
  L 3729.68 557.01
  A 1.66 1.66 0.0 0 1 3731.33 558.52
  Q 3731.60 561.48 3731.60 561.60
  Q 3731.64 566.31 3731.69 628.98
  C 3731.69 636.21 3730.71 639.98 3725.14 644.13
  Q 3699.21 663.48 3668.25 667.23
  Q 3660.89 668.12 3645.27 667.97
  C 3572.23 667.27 3534.46 596.19 3553.52 531.20
  C 3564.77 492.84 3596.19 465.42 3636.07 460.66
  Q 3652.10 458.75 3669.75 461.04
  Q 3700.60 465.04 3725.20 486.11
  A 1.74 1.74 0.0 0 1 3725.65 488.15
  Q 3724.85 489.91 3722.89 491.89
  Q 3721.40 493.39 3709.65 505.08
  A 0.82 0.81 43.1 0 1 3708.53 505.11
  Q 3681.25 480.56 3644.03 482.59
  C 3618.11 484.01 3595.25 500.85 3583.62 523.82
  Q 3570.14 550.46 3575.17 579.78
  C 3579.04 602.37 3589.94 622.29 3609.61 634.67
  C 3627.04 645.63 3649.88 648.29 3669.93 644.39
  C 3681.98 642.05 3692.72 636.86 3703.95 630.45
  C 3709.06 627.52 3709.71 624.61 3709.73 618.71
  Q 3709.80 597.30 3709.63 579.56
  A 1.05 1.04 89.5 0 0 3708.58 578.52
  Q 3697.30 578.59 3661.13 578.37
  Q 3658.73 578.35 3655.45 577.82
  A 0.64 0.63 -77.3 0 1 3654.94 577.01
  L 3655.75 574.29
  A 3.19 2.94 55.7 0 0 3655.88 573.40
  Q 3655.91 566.24 3657.51 559.58
  A 0.49 0.49 0.0 0 0 3657.51 559.34
  Q 3657.48 559.18 3657.35 559.09
  Z"
/>
<path fill="#fec627" d="
  M 2688.38 574.21
  C 2685.71 601.58 2674.55 625.36 2653.87 643.62
  Q 2632.40 662.58 2604.76 667.04
  Q 2591.35 669.21 2573.76 667.70
  C 2515.79 662.71 2478.25 610.61 2483.77 554.08
  C 2486.45 526.71 2497.61 502.93 2518.29 484.67
  Q 2539.76 465.71 2567.40 461.25
  Q 2580.81 459.08 2598.40 460.59
  C 2656.37 465.58 2693.91 517.68 2688.38 574.21
  Z
  M 2582.9140 482.2760
  A 81.88 77.82 -92.3 0 0 2508.4427 567.2131
  A 81.88 77.82 -92.3 0 0 2589.4860 645.9040
  A 81.88 77.82 -92.3 0 0 2663.9573 560.9669
  A 81.88 77.82 -92.3 0 0 2582.9140 482.2760
  Z"
/>
<path fill="#fec627" d="
  M 3772.74 634.29
  L 3788.44 618.58
  A 1.40 1.38 42.3 0 1 3790.31 618.50
  C 3810.64 635.33 3830.45 645.82 3856.73 645.94
  C 3871.17 646.01 3885.29 641.60 3894.73 630.26
  Q 3900.47 623.37 3900.79 615.09
  Q 3901.57 594.94 3884.07 586.12
  Q 3871.24 579.66 3855.88 576.58
  Q 3841.05 573.61 3830.49 570.54
  Q 3821.84 568.02 3810.38 562.46
  C 3793.36 554.21 3782.98 540.06 3782.02 520.98
  Q 3780.19 484.32 3812.21 468.18
  C 3821.71 463.39 3833.56 460.61 3844.60 460.18
  C 3871.82 459.12 3897.86 466.70 3918.65 484.37
  A 1.38 1.34 16.9 0 1 3919.12 485.22
  Q 3919.35 486.99 3918.21 488.46
  Q 3912.27 496.17 3906.42 503.56
  A 1.55 1.55 0.0 0 1 3904.28 503.85
  Q 3898.58 499.70 3895.29 497.47
  Q 3873.73 482.84 3847.50 482.39
  C 3829.86 482.08 3806.65 492.80 3806.02 513.46
  Q 3805.67 525.08 3813.08 533.49
  Q 3818.01 539.09 3830.79 543.80
  C 3842.25 548.03 3853.80 550.94 3865.68 553.57
  C 3878.97 556.51 3890.92 561.24 3902.02 567.58
  Q 3921.31 578.60 3924.81 598.72
  C 3928.27 618.66 3922.86 638.69 3906.61 652.16
  C 3894.50 662.19 3879.04 666.96 3862.98 667.77
  Q 3810.75 670.39 3772.75 634.95
  A 0.46 0.45 -46.3 0 1 3772.74 634.29
  Z"
/>
<path fill="#fec627" d="
  M 1509.26 665.90
  A 1.06 1.06 0.0 0 1 1508.88 664.58
  Q 1536.23 604.05 1598.13 466.88
  Q 1600.37 461.91 1606.00 461.76
  Q 1611.65 461.60 1617.25 461.66
  C 1622.84 461.72 1624.85 464.36 1627.13 469.42
  Q 1669.43 563.45 1709.61 652.14
  Q 1712.48 658.47 1714.51 664.07
  A 1.55 1.55 0.0 0 1 1713.05 666.15
  Q 1701.54 666.18 1692.18 666.22
  Q 1688.92 666.24 1687.81 663.72
  Q 1666.96 616.40 1666.87 616.18
  Q 1664.74 611.39 1659.37 611.38
  Q 1618.64 611.27 1563.52 611.37
  Q 1562.48 611.37 1559.98 611.99
  A 2.07 2.05 10.0 0 0 1558.78 612.82
  Q 1555.54 617.60 1554.80 619.31
  Q 1544.90 642.32 1535.17 663.69
  C 1533.99 666.28 1531.95 665.99 1528.95 665.99
  C 1521.62 666.01 1509.92 666.34 1509.26 665.90
  Z
  M 1569.04 586.94
  A 1.87 1.87 0.0 0 0 1570.74 589.57
  L 1652.62 589.71
  A 1.87 1.87 0.0 0 0 1654.34 587.08
  L 1613.55 495.44
  A 1.87 1.87 0.0 0 0 1610.14 495.44
  L 1569.04 586.94
  Z"
/>
<path fill="#fec627" d="
  M 2956.77 464.87
  A 1.55 1.55 0.0 0 1 2958.33 463.33
  L 3032.58 463.46
  A 102.54 99.24 0.1 0 1 3134.94 562.88
  L 3134.94 566.52
  A 102.54 99.24 0.1 0 1 3032.22 665.58
  L 2957.97 665.45
  A 1.55 1.55 0.0 0 1 2956.43 663.89
  L 2956.77 464.87
  Z
  M 2981.96 487.69
  L 2982.50 640.83
  A 1.85 1.85 0.0 0 0 2984.35 642.68
  L 3030.44 642.51
  A 79.50 78.28 -0.2 0 0 3109.67 563.96
  L 3109.67 563.68
  A 79.50 78.28 -0.2 0 0 3029.90 485.68
  L 2983.81 485.84
  A 1.85 1.85 0.0 0 0 2981.96 487.69
  Z"
/>
<path fill="#fec627" d="
  M 1463.44 665.14
  A 0.96 0.96 0.0 0 1 1462.48 666.10
  L 1328.25 666.13
  A 1.46 1.45 -90.0 0 1 1326.80 664.67
  L 1326.85 464.98
  A 1.52 1.51 0.2 0 1 1328.38 463.47
  L 1349.41 463.63
  A 1.29 1.29 0.0 0 1 1350.69 464.93
  L 1350.70 640.86
  A 1.33 1.32 89.8 0 0 1352.02 642.18
  L 1461.81 642.26
  A 1.56 1.56 0.0 0 1 1463.37 643.83
  L 1463.44 665.14
  Z"
/>
<path fill="#fec627" d="
  M 1920.49 620.13
  A 0.61 0.61 0.0 0 0 1921.58 619.75
  L 1921.58 464.60
  A 1.05 1.04 -90.0 0 1 1922.62 463.55
  Q 1933.14 463.56 1943.03 463.52
  Q 1945.39 463.51 1945.40 466.00
  Q 1945.85 549.00 1945.49 663.29
  Q 1945.48 665.80 1943.57 665.97
  Q 1936.80 666.58 1930.23 666.01
  C 1925.92 665.63 1923.37 661.95 1920.62 658.44
  Q 1861.60 582.91 1800.24 505.27
  Q 1799.88 504.81 1799.83 504.79
  A 1.16 1.15 -76.5 0 0 1798.15 505.82
  L 1798.07 665.06
  A 1.07 1.07 0.0 0 1 1797.00 666.13
  L 1775.53 666.13
  A 1.20 1.20 0.0 0 1 1774.33 664.93
  L 1774.33 465.35
  A 1.53 1.52 -1.8 0 1 1775.76 463.83
  Q 1784.91 463.23 1794.88 463.85
  Q 1798.77 464.09 1801.25 467.26
  Q 1820.38 491.68 1915.53 612.90
  C 1917.58 615.51 1918.70 617.88 1920.49 620.13
  Z"
/>
<path fill="#fec627" d="
  M 2023.34 464.72
  A 1.18 1.18 0.0 0 1 2024.52 463.54
  L 2099.62 463.54
  A 100.92 97.95 -0.0 0 1 2200.54 561.49
  L 2200.54 567.45
  A 100.92 97.95 -0.0 0 1 2099.62 665.40
  L 2024.52 665.40
  A 1.18 1.18 0.0 0 1 2023.34 664.22
  L 2023.34 464.72
  Z
  M 2047.41 487.68
  L 2047.15 640.46
  A 1.82 1.82 0.0 0 0 2048.96 642.28
  L 2097.37 642.37
  A 78.05 77.08 0.1 0 0 2175.56 565.42
  L 2175.56 563.16
  A 78.05 77.08 0.1 0 0 2097.65 485.95
  L 2049.24 485.86
  A 1.82 1.82 0.0 0 0 2047.41 487.68
  Z"
/>
<path fill="#fec627" d="
  M 2333.80 551.19
  Q 2384.82 551.19 2389.26 551.13
  A 1.80 1.79 89.7 0 0 2391.03 549.33
  L 2391.03 464.86
  A 1.28 1.28 0.0 0 1 2392.31 463.58
  L 2414.08 463.58
  A 0.73 0.72 -90.0 0 1 2414.80 464.31
  L 2414.80 665.03
  A 1.11 1.10 90.0 0 1 2413.70 666.14
  L 2392.08 666.14
  A 1.11 1.11 0.0 0 1 2390.97 665.03
  L 2390.97 576.36
  A 1.02 1.02 0.0 0 0 2389.96 575.34
  Q 2365.52 574.93 2333.80 574.92
  Q 2302.08 574.92 2277.64 575.33
  A 1.02 1.02 0.0 0 0 2276.63 576.35
  L 2276.62 665.02
  A 1.11 1.11 0.0 0 1 2275.51 666.13
  L 2253.89 666.13
  A 1.11 1.10 -90.0 0 1 2252.79 665.02
  L 2252.81 464.30
  A 0.73 0.72 -90.0 0 1 2253.53 463.57
  L 2275.30 463.57
  A 1.28 1.28 0.0 0 1 2276.58 464.85
  L 2276.57 549.32
  A 1.80 1.79 -89.7 0 0 2278.34 551.12
  Q 2282.78 551.18 2333.80 551.19
  Z"
/>
<rect fill="#fec627" x="3205.83" y="463.46" width="23.82" height="202.54" rx="1.38"/>
<path fill="#fec627" d="
  M 3457.38 463.61
  L 3479.54 463.61
  A 1.26 1.26 0.0 0 1 3480.80 464.87
  L 3480.80 664.72
  A 1.12 1.12 0.0 0 1 3479.83 665.83
  Q 3475.77 666.40 3471.99 666.41
  C 3465.35 666.44 3461.40 666.61 3457.34 661.45
  Q 3346.18 520.05 3335.87 506.93
  Q 3334.81 505.59 3333.90 505.50
  A 0.67 0.66 -87.3 0 0 3333.18 506.17
  Q 3333.15 640.57 3333.19 663.27
  Q 3333.19 666.23 3330.21 666.18
  Q 3324.09 666.08 3310.45 666.07
  A 0.99 0.99 0.0 0 1 3309.47 665.08
  L 3309.47 464.63
  A 1.00 1.00 0.0 0 1 3310.46 463.63
  Q 3318.79 463.53 3327.25 463.60
  C 3331.77 463.63 3333.45 464.86 3336.45 468.68
  Q 3430.14 588.15 3454.82 619.67
  Q 3455.21 620.16 3455.84 620.51
  A 0.66 0.65 -75.1 0 0 3456.82 619.94
  L 3456.82 464.17
  A 0.56 0.56 0.0 0 1 3457.38 463.61
  Z"
/>
<path fill="#fec627" d="
  M 2758.39 664.67
  L 2758.39 465.10
  A 1.39 1.39 0.0 0 1 2759.78 463.71
  L 2780.85 463.71
  A 1.39 1.39 0.0 0 1 2782.24 465.10
  L 2782.24 640.80
  A 1.39 1.39 0.0 0 0 2783.63 642.19
  L 2893.46 642.19
  A 1.39 1.39 0.0 0 1 2894.85 643.58
  L 2894.85 664.67
  A 1.39 1.39 0.0 0 1 2893.46 666.06
  L 2759.78 666.06
  A 1.39 1.39 0.0 0 1 2758.39 664.67
  Z"
/>
</svg>
