<?xml version="1.0" encoding="UTF-8" standalone="no"?>
<!DOCTYPE svg PUBLIC "-//W3C//DTD SVG 1.1//EN" "http://www.w3.org/Graphics/SVG/1.1/DTD/svg11.dtd">
<svg xmlns="http://www.w3.org/2000/svg" version="1.1" viewBox="0.00 0.00 2982.00 798.00">
<path fill="#e9b649" d="
  M 507.98 276.50
  L 595.55 276.50
  A 1.03 1.00 74.1 0 1 596.42 277.00
  L 668.74 398.86
  A 1.82 1.80 38.3 0 1 668.92 400.31
  Q 657.15 439.14 630.50 467.27
  C 599.57 499.90 557.83 518.32 512.77 519.03
  C 438.71 520.20 372.84 471.36 352.18 400.58
  Q 343.44 370.61 346.31 338.78
  C 353.22 262.22 413.12 200.38 489.28 190.67
  Q 529.74 185.52 567.97 199.58
  A 0.33 0.33 0.0 0 1 568.16 200.02
  L 548.78 244.15
  A 0.63 0.62 -70.2 0 1 548.05 244.50
  Q 528.53 238.96 515.45 238.94
  Q 463.94 238.86 429.18 274.45
  Q 414.01 289.98 405.22 311.42
  C 382.76 366.20 406.44 428.64 457.35 456.18
  C 515.44 487.60 586.55 464.36 616.00 405.92
  A 0.61 0.59 44.0 0 0 615.98 405.34
  L 567.79 327.02
  A 1.09 1.09 0.0 0 0 566.86 326.50
  L 507.58 326.50
  A 0.34 0.34 0.0 0 1 507.24 326.16
  L 507.24 277.24
  A 0.74 0.74 0.0 0 1 507.98 276.50
  Z"
/>
<path fill="#e9b649" d="
  M 1850.27 189.19
  Q 1889.73 189.31 1940.35 189.18
  Q 1958.74 189.13 1967.02 190.88
  C 2006.23 199.22 2034.01 234.05 2032.23 274.32
  Q 2031.52 290.56 2025.67 303.31
  A 1.07 1.07 0.0 0 0 2025.97 304.58
  Q 2028.92 307.01 2032.54 310.69
  Q 2062.40 341.01 2066.18 382.72
  C 2071.60 442.52 2029.66 498.54 1969.82 508.54
  Q 1960.75 510.06 1942.14 510.01
  Q 1875.18 509.84 1850.15 509.97
  A 0.64 0.64 0.0 0 1 1849.50 509.33
  L 1849.50 189.96
  A 0.77 0.77 0.0 0 1 1850.27 189.19
  Z
  M 1954.39 318.41
  C 1969.06 310.08 1979.29 295.67 1983.80 279.82
  C 1989.08 261.28 1977.16 243.25 1959.99 238.03
  Q 1955.20 236.58 1944.88 236.70
  Q 1935.24 236.81 1900.08 236.72
  A 0.33 0.32 90.0 0 0 1899.76 237.05
  L 1899.76 455.91
  A 0.38 0.38 0.0 0 0 1900.15 456.29
  Q 1919.33 456.10 1938.33 456.31
  Q 1956.26 456.51 1964.55 454.67
  C 1990.37 448.95 2010.10 427.50 2013.95 401.43
  C 2019.96 360.71 1986.70 334.79 1954.40 318.80
  A 0.22 0.22 0.0 0 1 1954.39 318.41
  Z"
/>
<rect fill="#e9b649" x="2596.29" y="189.27" width="9.96" height="469.98" rx="0.37"/>
<path fill="#e9b649" d="
  M 2791.93 233.62
  L 2791.93 240.69
  A 0.55 0.54 90.0 0 1 2791.39 241.24
  L 2760.12 241.24
  A 0.62 0.61 0.0 0 0 2759.50 241.85
  L 2759.50 257.84
  A 0.66 0.66 0.0 0 0 2760.16 258.50
  L 2803.89 258.50
  A 0.37 0.37 0.0 0 1 2804.26 258.87
  L 2804.26 267.58
  A 0.37 0.36 0.0 0 1 2803.89 267.94
  L 2759.81 267.94
  A 0.31 0.31 0.0 0 0 2759.50 268.25
  L 2759.50 297.84
  A 0.41 0.41 0.0 0 0 2759.91 298.25
  L 2812.67 298.25
  A 0.27 0.27 0.0 0 1 2812.94 298.52
  L 2812.94 307.51
  A 0.24 0.24 0.0 0 1 2812.70 307.75
  L 2696.52 307.75
  A 0.23 0.23 0.0 0 1 2696.29 307.52
  L 2696.29 298.55
  A 0.30 0.29 0.0 0 1 2696.59 298.26
  L 2748.94 298.26
  A 0.35 0.35 0.0 0 0 2749.29 297.91
  L 2749.29 268.31
  A 0.38 0.37 0.0 0 0 2748.91 267.94
  L 2704.83 267.94
  A 0.31 0.31 0.0 0 1 2704.52 267.63
  L 2704.52 258.84
  A 0.34 0.34 0.0 0 1 2704.86 258.50
  L 2748.95 258.50
  A 0.34 0.33 -0.0 0 0 2749.29 258.17
  L 2749.29 241.73
  A 0.50 0.49 -0.0 0 0 2748.79 241.24
  L 2717.30 241.24
  A 0.52 0.52 0.0 0 1 2716.78 240.72
  L 2716.78 233.32
  A 0.36 0.36 0.0 0 0 2716.23 233.01
  L 2698.30 243.65
  A 0.49 0.49 0.0 0 1 2697.66 243.51
  L 2691.38 234.69
  A 0.55 0.54 -30.3 0 1 2691.60 233.87
  C 2713.86 223.76 2735.68 209.66 2749.92 189.73
  A 1.19 1.17 17.5 0 1 2750.88 189.24
  L 2763.45 189.24
  A 0.41 0.41 0.0 0 1 2763.76 189.91
  L 2761.71 192.36
  A 0.96 0.96 0.0 0 0 2761.71 193.58
  C 2776.66 211.77 2795.32 223.40 2817.06 232.26
  A 0.47 0.47 0.0 0 1 2817.27 232.96
  L 2811.09 242.28
  A 0.68 0.66 -61.5 0 1 2810.28 242.53
  Q 2801.32 238.66 2792.56 233.27
  A 0.41 0.41 0.0 0 0 2791.93 233.62
  Z
  M 2718.41 231.48
  A 0.33 0.32 -61.1 0 0 2718.58 232.08
  L 2789.59 232.08
  A 0.33 0.32 61.2 0 0 2789.76 231.48
  Q 2770.28 218.75 2754.90 200.67
  A 0.41 0.40 -45.5 0 0 2754.28 200.68
  C 2744.43 212.87 2731.60 223.07 2718.41 231.48
  Z"
/>
<path fill="#e9b649" d="
  M 1496.64 359.44
  Q 1492.64 359.85 1471.26 359.78
  C 1448.02 359.70 1428.04 375.65 1420.65 397.18
  C 1416.88 408.16 1417.06 420.83 1421.13 432.06
  C 1427.48 449.60 1441.53 462.01 1459.61 466.68
  Q 1465.17 468.12 1476.04 468.17
  Q 1492.95 468.25 1496.62 468.26
  A 0.62 0.62 0.0 0 1 1497.23 468.88
  L 1497.24 509.42
  A 0.56 0.56 0.0 0 1 1496.60 509.97
  Q 1495.80 509.84 1478.58 509.99
  Q 1467.55 510.09 1460.56 508.89
  Q 1434.17 504.37 1414.96 488.26
  Q 1383.39 461.79 1380.12 420.78
  C 1377.16 383.55 1396.69 348.07 1429.20 329.86
  A 0.35 0.35 0.0 0 0 1429.33 329.38
  Q 1418.92 311.40 1423.18 292.72
  C 1427.23 274.90 1440.89 261.39 1458.74 256.97
  Q 1464.64 255.51 1476.35 255.75
  Q 1477.92 255.78 1496.96 255.78
  A 0.27 0.27 0.0 0 1 1497.23 256.05
  L 1497.23 295.22
  A 0.62 0.62 0.0 0 1 1496.58 295.84
  Q 1486.30 295.47 1474.27 295.49
  Q 1466.57 295.50 1462.70 301.43
  C 1457.91 308.78 1462.89 319.09 1472.03 319.75
  C 1481.78 320.44 1491.16 320.06 1496.66 320.12
  A 0.57 0.57 0.0 0 1 1497.23 320.69
  L 1497.23 358.79
  A 0.66 0.65 -2.9 0 1 1496.64 359.44
  Z"
/>
<path fill="#e9b649" d="
  M 1658.15 297.19
  A 0.20 0.20 0.0 0 0 1658.50 297.05
  L 1658.50 256.11
  A 0.34 0.34 0.0 0 1 1658.84 255.77
  L 1696.85 255.77
  A 0.37 0.37 0.0 0 1 1697.22 256.14
  L 1697.22 509.42
  A 0.52 0.51 0.0 0 1 1696.70 509.93
  L 1659.08 509.93
  A 0.56 0.55 -0.0 0 1 1658.52 509.38
  Q 1658.46 459.54 1658.54 398.96
  Q 1658.57 381.94 1657.18 374.13
  C 1649.81 332.72 1617.22 301.32 1575.61 295.22
  A 0.33 0.33 0.0 0 0 1575.24 295.55
  L 1575.24 509.62
  A 0.32 0.31 0.0 0 1 1574.92 509.93
  L 1536.79 509.93
  A 0.55 0.55 0.0 0 1 1536.24 509.38
  L 1536.24 256.35
  A 0.59 0.59 0.0 0 1 1536.83 255.76
  Q 1547.61 255.77 1556.10 255.75
  Q 1569.61 255.72 1575.40 256.30
  Q 1623.92 261.15 1658.15 297.19
  Z"
/>
<path fill="#e9b649" d="
  M 2417.57 378.42
  Q 2417.70 378.42 2417.83 378.39
  A 0.16 0.06 -18.7 0 0 2417.85 378.37
  L 2465.68 256.28
  A 0.83 0.83 0.0 0 1 2466.45 255.76
  L 2504.07 255.76
  A 0.47 0.47 0.0 0 1 2504.51 256.40
  L 2437.12 428.38
  A 2.97 2.89 56.1 0 0 2436.93 429.42
  L 2436.93 513.73
  A 0.78 0.77 -0.2 0 1 2436.16 514.50
  Q 2434.33 514.50 2417.59 514.50
  Q 2400.86 514.50 2399.02 514.50
  A 0.78 0.77 0.2 0 1 2398.25 513.74
  L 2398.23 429.43
  A 2.97 2.89 -56.1 0 0 2398.04 428.39
  L 2330.61 256.42
  A 0.47 0.47 0.0 0 1 2331.05 255.78
  L 2368.67 255.77
  A 0.83 0.83 0.0 0 1 2369.44 256.29
  L 2417.30 378.37
  A 0.16 0.06 18.7 0 0 2417.32 378.39
  Q 2417.45 378.42 2417.57 378.42
  Z"
/>
<path fill="#e9b649" d="
  M 970.50 386.07
  A 130.17 130.17 0.0 0 1 840.33 516.24
  A 130.17 130.17 0.0 0 1 710.16 386.07
  A 130.17 130.17 0.0 0 1 840.33 255.90
  A 130.17 130.17 0.0 0 1 970.50 386.07
  Z
  M 933.26 385.45
  A 92.30 92.30 0.0 0 0 840.96 293.15
  A 92.30 92.30 0.0 0 0 748.66 385.45
  A 92.30 92.30 0.0 0 0 840.96 477.75
  A 92.30 92.30 0.0 0 0 933.26 385.45
  Z"
/>
<path fill="#e9b649" d="
  M 1018.24 516.12
  L 1018.24 256.62
  A 0.38 0.38 0.0 0 1 1018.62 256.24
  L 1056.52 256.24
  A 0.38 0.38 0.0 0 1 1056.90 256.62
  L 1056.90 477.39
  A 0.38 0.38 0.0 0 0 1057.28 477.77
  L 1118.84 477.77
  A 0.38 0.38 0.0 0 1 1119.22 478.15
  L 1119.22 516.12
  A 0.38 0.38 0.0 0 1 1118.84 516.50
  L 1018.62 516.50
  A 0.38 0.38 0.0 0 1 1018.24 516.12
  Z"
/>
<path fill="#e9b649" d="
  M 1174.49 256.62
  A 0.42 0.42 0.0 0 1 1174.91 256.20
  L 1212.13 256.20
  A 130.14 128.75 -0.0 0 1 1342.27 384.95
  L 1342.27 387.49
  A 130.14 128.75 -0.0 0 1 1212.13 516.24
  L 1174.91 516.24
  A 0.42 0.42 0.0 0 1 1174.49 515.82
  L 1174.49 256.62
  Z
  M 1213.24 385.71
  Q 1213.25 472.98 1213.18 475.96
  A 0.39 0.39 0.0 0 0 1213.58 476.37
  C 1262.51 475.06 1302.25 435.16 1302.25 385.70
  C 1302.24 336.25 1262.49 296.35 1213.56 295.06
  A 0.39 0.39 0.0 0 0 1213.15 295.46
  Q 1213.23 298.45 1213.24 385.71
  Z"
/>
<path fill="#e9b649" d="
  M 2235.40 461.25
  L 2145.30 461.25
  A 0.37 0.36 -0.0 0 0 2144.93 461.61
  L 2144.93 514.21
  A 0.29 0.29 0.0 0 1 2144.64 514.50
  L 2106.60 514.50
  A 0.28 0.28 0.0 0 1 2106.32 514.22
  Q 2105.99 451.07 2106.28 389.75
  C 2106.57 325.61 2152.33 272.63 2215.38 261.79
  Q 2225.69 260.01 2243.21 260.17
  Q 2267.14 260.39 2274.36 260.21
  A 0.39 0.39 0.0 0 1 2274.76 260.60
  L 2274.76 514.17
  A 0.33 0.33 0.0 0 1 2274.43 514.50
  L 2236.66 514.50
  A 0.58 0.57 -0.0 0 1 2236.08 513.93
  L 2236.08 461.93
  A 0.68 0.68 0.0 0 0 2235.40 461.25
  Z
  M 2145.63 422.51
  L 2235.57 422.51
  A 0.51 0.51 0.0 0 0 2236.08 422.00
  L 2236.08 295.48
  A 0.66 0.65 -86.5 0 0 2235.51 294.83
  Q 2234.18 294.64 2232.18 294.84
  C 2203.78 297.61 2178.95 311.84 2162.51 334.96
  Q 2145.17 359.37 2144.96 391.50
  Q 2144.88 404.31 2144.96 421.85
  A 0.67 0.66 0.0 0 0 2145.63 422.51
  Z"
/>
<path fill="#e9b649" d="
  M 2798.22 275.53
  L 2780.25 296.01
  A 0.44 0.43 40.7 0 1 2779.64 296.05
  L 2772.42 290.02
  A 0.31 0.31 0.0 0 1 2772.40 289.57
  Q 2781.48 280.30 2789.33 269.41
  A 0.37 0.37 0.0 0 1 2789.84 269.32
  L 2798.13 274.81
  A 0.48 0.48 0.0 0 1 2798.22 275.53
  Z"
/>
<path fill="#e9b649" d="
  M 2735.61 288.95
  L 2727.56 295.66
  A 0.32 0.32 0.0 0 1 2727.11 295.61
  L 2710.51 275.68
  A 0.32 0.32 0.0 0 1 2710.56 275.23
  L 2717.55 269.41
  A 0.32 0.32 0.0 0 1 2717.99 269.44
  L 2735.64 288.48
  A 0.32 0.32 0.0 0 1 2735.61 288.95
  Z"
/>
<path fill="#e9b649" d="
  M 2754.48 362.34
  L 2748.59 373.97
  A 0.37 0.37 0.0 0 0 2748.92 374.51
  L 2814.00 374.51
  A 0.24 0.24 0.0 0 1 2814.24 374.75
  L 2814.24 383.25
  A 0.23 0.23 0.0 0 1 2814.01 383.48
  L 2743.34 383.48
  A 1.03 1.02 15.9 0 0 2742.47 383.96
  Q 2734.84 395.99 2725.21 405.41
  A 0.30 0.29 -41.8 0 1 2724.78 405.39
  L 2718.78 398.17
  A 0.28 0.27 -42.6 0 1 2718.80 397.80
  Q 2734.42 382.65 2743.46 362.33
  A 0.43 0.42 11.6 0 1 2743.85 362.08
  L 2754.32 362.08
  A 0.18 0.18 0.0 0 1 2754.48 362.34
  Z"
/>
<path fill="#e9b649" d="
  M 2696.84 370.39
  L 2702.83 363.96
  A 0.31 0.31 0.0 0 1 2703.26 363.93
  L 2723.92 381.18
  A 0.31 0.31 0.0 0 1 2723.94 381.64
  L 2716.69 388.89
  A 0.31 0.31 0.0 0 1 2716.26 388.90
  L 2696.86 370.83
  A 0.31 0.31 0.0 0 1 2696.84 370.39
  Z"
/>
<path fill="#e9b649" d="
  M 2719.84 434.22
  A 0.30 0.30 0.0 0 1 2719.54 433.92
  L 2719.54 425.55
  A 0.29 0.29 0.0 0 1 2719.83 425.26
  L 2731.81 425.26
  A 0.67 0.66 4.0 0 0 2732.47 424.69
  L 2736.74 394.63
  A 0.65 0.64 3.5 0 1 2737.38 394.07
  L 2804.08 394.07
  A 0.52 0.51 -89.4 0 1 2804.59 394.60
  L 2803.83 424.72
  A 0.52 0.52 0.0 0 0 2804.35 425.25
  L 2816.67 425.25
  A 0.28 0.28 0.0 0 1 2816.95 425.53
  L 2816.95 433.94
  A 0.31 0.31 0.0 0 1 2816.64 434.25
  L 2803.83 434.25
  A 0.38 0.37 0.0 0 0 2803.45 434.62
  L 2802.89 456.52
  A 0.53 0.53 0.0 0 0 2803.42 457.06
  L 2812.68 457.06
  A 0.27 0.27 0.0 0 1 2812.95 457.33
  L 2812.95 465.48
  A 0.27 0.27 0.0 0 1 2812.68 465.75
  L 2802.72 465.75
  A 0.66 0.66 0.0 0 0 2802.06 466.36
  Q 2801.74 470.74 2799.94 475.15
  C 2796.97 482.40 2790.22 484.60 2783.00 484.72
  Q 2774.05 484.87 2764.75 484.24
  A 0.65 0.63 -2.9 0 1 2764.17 483.73
  L 2762.39 474.28
  A 0.36 0.36 0.0 0 1 2762.78 473.86
  Q 2767.74 474.41 2776.82 474.94
  C 2781.53 475.21 2785.80 475.23 2788.78 472.48
  Q 2791.49 469.98 2792.19 466.04
  A 0.26 0.26 0.0 0 0 2791.93 465.73
  L 2728.45 465.73
  A 0.40 0.40 0.0 0 1 2728.05 465.30
  C 2728.31 461.63 2727.86 456.20 2728.64 451.23
  Q 2729.23 447.50 2731.07 434.71
  A 0.43 0.43 0.0 0 0 2730.64 434.22
  L 2719.84 434.22
  Z
  M 2794.74 403.10
  A 0.35 0.35 0.0 0 0 2794.39 402.74
  L 2745.69 402.74
  A 0.35 0.35 0.0 0 0 2745.35 403.04
  L 2742.26 424.85
  A 0.35 0.35 0.0 0 0 2742.60 425.25
  L 2793.84 425.25
  A 0.35 0.35 0.0 0 0 2794.19 424.91
  L 2794.74 403.10
  Z
  M 2793.79 434.60
  A 0.35 0.35 0.0 0 0 2793.44 434.24
  L 2741.52 434.24
  A 0.35 0.35 0.0 0 0 2741.18 434.54
  L 2738.05 456.66
  A 0.35 0.35 0.0 0 0 2738.39 457.06
  L 2792.89 457.06
  A 0.35 0.35 0.0 0 0 2793.24 456.72
  L 2793.79 434.60
  Z"
/>
<path fill="#e9b649" d="
  M 2719.63 413.19
  L 2712.72 421.06
  A 0.33 0.33 0.0 0 1 2712.26 421.09
  L 2692.02 404.18
  A 0.33 0.33 0.0 0 1 2691.98 403.71
  L 2698.02 396.83
  A 0.33 0.33 0.0 0 1 2698.46 396.78
  L 2719.58 412.71
  A 0.33 0.33 0.0 0 1 2719.63 413.19
  Z"
/>
<path fill="#e9b649" d="
  M 2778.91 417.03
  L 2772.94 423.44
  A 0.30 0.30 0.0 0 1 2772.52 423.46
  L 2757.94 409.88
  A 0.30 0.30 0.0 0 1 2757.92 409.46
  L 2763.17 403.84
  A 0.30 0.30 0.0 0 1 2763.58 403.81
  L 2778.89 416.60
  A 0.30 0.30 0.0 0 1 2778.91 417.03
  Z"
/>
<path fill="#e9b649" d="
  M 2706.20 485.58
  L 2696.11 482.86
  A 0.72 0.72 0.0 0 1 2695.62 481.93
  Q 2703.01 459.81 2708.16 434.90
  A 0.56 0.56 0.0 0 1 2708.91 434.49
  L 2718.10 438.10
  A 0.60 0.60 0.0 0 1 2718.47 438.81
  L 2706.82 485.22
  A 0.50 0.50 0.0 0 1 2706.20 485.58
  Z"
/>
<path fill="#e9b649" d="
  M 2777.37 449.20
  L 2771.10 455.47
  A 0.33 0.33 0.0 0 1 2770.64 455.48
  L 2756.15 442.00
  A 0.33 0.33 0.0 0 1 2756.14 441.53
  L 2761.67 435.99
  A 0.33 0.33 0.0 0 1 2762.11 435.97
  L 2777.35 448.71
  A 0.33 0.33 0.0 0 1 2777.37 449.20
  Z"
/>
<path fill="#e9b649" d="
  M 2784.07 549.25
  L 2750.23 549.25
  A 0.43 0.43 0.0 0 1 2749.80 548.82
  L 2749.80 543.20
  A 0.43 0.43 0.0 0 1 2750.23 542.77
  L 2763.27 542.77
  A 0.43 0.43 0.0 0 0 2763.69 542.24
  L 2762.52 537.46
  A 0.43 0.43 0.0 0 1 2762.86 536.94
  L 2769.33 535.72
  A 0.43 0.43 0.0 0 1 2769.83 536.04
  L 2771.39 542.43
  A 0.43 0.43 0.0 0 0 2771.81 542.76
  L 2784.07 542.76
  A 0.43 0.43 0.0 0 1 2784.50 543.19
  L 2784.50 548.82
  A 0.43 0.43 0.0 0 1 2784.07 549.25
  Z"
/>
<path fill="#e9b649" d="
  M 2719.19 571.42
  L 2730.42 560.20
  A 0.31 0.30 -70.9 0 0 2730.17 559.68
  L 2720.02 560.91
  A 0.65 0.64 81.5 0 1 2719.31 560.38
  L 2718.36 555.32
  A 1.24 1.24 0.0 0 1 2718.63 554.27
  Q 2725.68 545.76 2730.88 536.41
  A 0.70 0.69 -58.3 0 1 2731.87 536.17
  L 2737.04 539.59
  A 0.57 0.57 0.0 0 1 2737.16 540.43
  L 2726.16 553.60
  A 0.41 0.41 0.0 0 0 2726.51 554.27
  L 2734.89 553.63
  A 2.55 2.53 -72.1 0 0 2736.65 552.72
  L 2743.13 544.97
  A 0.37 0.36 -52.7 0 1 2743.60 544.90
  L 2749.01 548.49
  A 0.16 0.15 -51.2 0 1 2749.03 548.73
  L 2728.68 570.60
  A 0.34 0.34 0.0 0 0 2728.96 571.17
  L 2741.34 570.23
  A 0.38 0.38 0.0 0 0 2741.66 569.71
  L 2739.09 563.13
  A 0.44 0.44 0.0 0 1 2739.31 562.57
  L 2744.02 560.42
  A 0.57 0.57 0.0 0 1 2744.78 560.73
  L 2750.87 576.29
  A 1.16 1.15 -23.3 0 1 2750.28 577.76
  L 2745.84 579.78
  A 0.84 0.83 72.3 0 1 2744.67 579.17
  L 2744.28 577.09
  A 0.97 0.96 -7.4 0 0 2743.26 576.31
  L 2720.76 578.03
  A 0.73 0.73 0.0 0 1 2719.99 577.44
  L 2718.98 572.10
  A 0.79 0.77 -28.4 0 1 2719.19 571.42
  Z"
/>
<path fill="#e9b649" d="
  M 2795.12 571.49
  L 2807.32 570.56
  A 0.53 0.53 0.0 0 0 2807.78 569.84
  L 2805.29 563.48
  A 0.61 0.61 0.0 0 1 2805.63 562.69
  L 2810.28 560.87
  A 0.61 0.60 68.7 0 1 2811.06 561.22
  L 2817.02 576.44
  A 1.12 1.11 -21.5 0 1 2816.39 577.88
  L 2811.78 579.68
  A 0.76 0.76 0.0 0 1 2810.76 579.15
  L 2810.25 577.09
  A 0.59 0.59 0.0 0 0 2809.63 576.64
  L 2787.02 578.37
  A 0.51 0.51 0.0 0 1 2786.49 577.98
  L 2785.13 572.40
  A 0.90 0.89 -30.2 0 1 2785.36 571.56
  L 2796.90 560.02
  A 0.38 0.38 0.0 0 0 2796.59 559.37
  L 2786.10 560.65
  A 0.45 0.45 0.0 0 1 2785.62 560.32
  L 2784.46 555.54
  A 1.21 1.20 -30.9 0 1 2784.74 554.43
  Q 2792.19 546.16 2797.50 536.41
  A 0.46 0.46 0.0 0 1 2798.11 536.22
  L 2804.31 539.37
  A 0.32 0.31 33.5 0 1 2804.41 539.85
  L 2792.88 553.65
  A 0.16 0.16 0.0 0 0 2793.02 553.91
  L 2802.53 553.19
  A 0.39 0.35 13.9 0 0 2802.77 553.06
  L 2809.60 544.89
  A 0.63 0.63 0.0 0 1 2810.47 544.79
  L 2814.62 547.92
  A 0.61 0.61 0.0 0 1 2814.73 548.79
  Q 2805.47 560.27 2794.81 570.81
  A 0.40 0.40 0.0 0 0 2795.12 571.49
  Z"
/>
<path fill="#e9b649" d="
  M 2717.02 556.85
  L 2711.05 563.27
  A 0.46 0.46 0.0 0 1 2710.37 563.27
  L 2693.96 545.56
  A 0.46 0.46 0.0 0 1 2693.96 544.94
  L 2699.32 539.19
  A 0.46 0.46 0.0 0 1 2699.98 539.18
  L 2717.01 556.22
  A 0.46 0.46 0.0 0 1 2717.02 556.85
  Z"
/>
<rect fill="#e9b649" x="2752.54" y="554.29" width="28.96" height="6.46" rx="0.32"/>
<rect fill="#e9b649" x="2752.55" y="565.75" width="28.94" height="6.50" rx="0.35"/>
<path fill="#e9b649" d="
  M 2691.66 577.71
  L 2696.94 570.71
  A 0.34 0.34 0.0 0 1 2697.44 570.66
  L 2715.18 586.24
  A 0.34 0.34 0.0 0 1 2715.23 586.70
  L 2709.54 594.24
  A 0.34 0.34 0.0 0 1 2709.03 594.28
  L 2691.70 578.16
  A 0.34 0.34 0.0 0 1 2691.66 577.71
  Z"
/>
<path fill="#e9b649" d="
  M 2767.01 577.28
  Q 2778.74 577.26 2781.17 577.24
  A 0.33 0.33 0.0 0 1 2781.51 577.57
  L 2781.51 599.32
  A 0.61 0.61 0.0 0 1 2780.90 599.93
  L 2775.51 599.93
  A 0.57 0.56 0.0 0 1 2774.94 599.37
  L 2774.94 597.11
  A 0.40 0.39 89.2 0 0 2774.54 596.71
  Q 2772.72 596.75 2767.04 596.75
  Q 2761.35 596.76 2759.54 596.73
  A 0.40 0.39 -89.3 0 0 2759.14 597.13
  L 2759.14 599.39
  A 0.57 0.56 -0.1 0 1 2758.57 599.95
  L 2753.18 599.96
  A 0.61 0.61 0.0 0 1 2752.57 599.36
  L 2752.52 577.61
  A 0.33 0.33 0.0 0 1 2752.86 577.27
  Q 2755.29 577.29 2767.01 577.28
  Z
  M 2775.06 583.92
  A 0.43 0.43 0.0 0 0 2774.63 583.49
  L 2759.69 583.49
  A 0.43 0.43 0.0 0 0 2759.26 583.92
  L 2759.26 590.34
  A 0.43 0.43 0.0 0 0 2759.69 590.77
  L 2774.63 590.77
  A 0.43 0.43 0.0 0 0 2775.06 590.34
  L 2775.06 583.92
  Z"
/>
<rect fill="#e9b649" x="-3.08" y="-8.20" transform="translate(2745.85,588.85) rotate(-12.4)" width="6.16" height="16.40" rx="0.27"/>
<path fill="#e9b649" d="
  M 2816.51 596.77
  L 2810.68 598.20
  A 0.39 0.39 0.0 0 1 2810.20 597.90
  L 2807.29 582.44
  A 0.39 0.39 0.0 0 1 2807.58 581.99
  L 2812.60 580.76
  A 0.39 0.39 0.0 0 1 2813.07 581.05
  L 2816.80 596.30
  A 0.39 0.39 0.0 0 1 2816.51 596.77
  Z"
/>
<path fill="#e9b649" d="
  M 2723.35 600.53
  L 2717.28 599.41
  A 0.33 0.33 0.0 0 1 2717.02 599.01
  L 2721.33 581.80
  A 0.33 0.33 0.0 0 1 2721.71 581.56
  L 2726.65 582.46
  A 0.33 0.33 0.0 0 1 2726.91 582.84
  L 2723.74 600.26
  A 0.33 0.33 0.0 0 1 2723.35 600.53
  Z"
/>
<path fill="#e9b649" d="
  M 2787.77 581.53
  L 2792.86 582.45
  A 0.34 0.34 0.0 0 1 2793.13 582.84
  L 2789.95 600.27
  A 0.34 0.34 0.0 0 1 2789.56 600.54
  L 2783.33 599.40
  A 0.34 0.34 0.0 0 1 2783.06 598.98
  L 2787.38 581.78
  A 0.34 0.34 0.0 0 1 2787.77 581.53
  Z"
/>
<path fill="#e9b649" d="
  M 2738.29 598.35
  L 2732.63 599.03
  A 0.54 0.54 0.0 0 1 2732.03 598.54
  L 2730.83 582.79
  A 0.54 0.54 0.0 0 1 2731.30 582.22
  L 2736.26 581.62
  A 0.54 0.54 0.0 0 1 2736.87 582.09
  L 2738.76 597.74
  A 0.54 0.54 0.0 0 1 2738.29 598.35
  Z"
/>
<path fill="#e9b649" d="
  M 2804.36 598.51
  L 2798.30 599.24
  A 0.32 0.32 0.0 0 1 2797.94 598.95
  L 2796.70 582.72
  A 0.32 0.32 0.0 0 1 2796.98 582.37
  L 2802.32 581.73
  A 0.32 0.32 0.0 0 1 2802.68 582.01
  L 2804.64 598.15
  A 0.32 0.32 0.0 0 1 2804.36 598.51
  Z"
/>
<path fill="#e9b649" d="
  M 615.18 650.76
  L 617.66 645.89
  A 0.23 0.23 0.0 0 1 618.02 645.81
  Q 628.82 654.82 643.56 653.04
  C 649.20 652.35 655.02 649.44 655.67 643.33
  C 657.64 624.86 617.55 635.84 616.74 612.93
  C 616.37 602.56 623.47 596.87 633.24 595.06
  Q 646.22 592.66 659.32 599.47
  A 1.03 1.02 24.6 0 1 659.81 600.76
  L 658.10 605.11
  A 0.71 0.71 0.0 0 1 657.06 605.46
  C 649.05 600.50 635.94 597.86 627.69 603.78
  C 622.31 607.64 622.00 615.54 627.72 619.39
  Q 630.61 621.34 633.72 622.15
  Q 643.90 624.81 649.03 626.28
  C 656.34 628.38 662.33 632.81 662.60 641.19
  C 662.91 650.74 656.12 656.73 647.26 658.48
  C 636.70 660.56 623.44 658.84 615.26 651.19
  A 0.37 0.36 -56.4 0 1 615.18 650.76
  Z"
/>
<path fill="#e9b649" d="
  M 852.96 645.83
  Q 863.77 654.83 878.51 653.04
  C 884.15 652.35 889.97 649.43 890.61 643.32
  C 892.57 624.85 852.48 635.86 851.65 612.95
  C 851.28 602.58 858.37 596.88 868.14 595.07
  Q 881.12 592.66 894.23 599.46
  A 1.03 1.02 24.5 0 1 894.72 600.75
  L 893.01 605.10
  A 0.71 0.71 0.0 0 1 891.97 605.45
  C 883.96 600.49 870.84 597.86 862.60 603.79
  C 857.22 607.66 856.92 615.56 862.64 619.40
  Q 865.53 621.35 868.64 622.16
  Q 878.82 624.81 883.96 626.28
  C 891.27 628.37 897.26 632.80 897.54 641.18
  C 897.86 650.73 891.07 656.72 882.21 658.48
  C 871.65 660.57 858.39 658.86 850.20 651.21
  A 0.37 0.36 -56.4 0 1 850.12 650.78
  L 852.60 645.91
  A 0.23 0.23 0.0 0 1 852.96 645.83
  Z"
/>
<path fill="#e9b649" d="
  M 1197.2201 626.8512
  A 33.68 32.64 -179.9 0 1 1230.9570 594.2700
  A 33.68 32.64 -179.9 0 1 1264.5799 626.9688
  A 33.68 32.64 -179.9 0 1 1230.8430 659.5500
  A 33.68 32.64 -179.9 0 1 1197.2201 626.8512
  Z
  M 1257.5590 626.6871
  A 26.69 26.33 -0.5 0 0 1230.6402 600.5910
  A 26.69 26.33 -0.5 0 0 1204.1810 627.1529
  A 26.69 26.33 -0.5 0 0 1231.0998 653.2490
  A 26.69 26.33 -0.5 0 0 1257.5590 626.6871
  Z"
/>
<path fill="#e9b649" d="
  M 1367.9087 626.6160
  A 33.69 32.64 -0.5 0 1 1334.5048 659.5488
  A 33.69 32.64 -0.5 0 1 1300.5313 627.2040
  A 33.69 32.64 -0.5 0 1 1333.9352 594.2712
  A 33.69 32.64 -0.5 0 1 1367.9087 626.6160
  Z
  M 1360.8574 626.5375
  A 26.68 26.33 -0.8 0 0 1333.8124 600.5826
  A 26.68 26.33 -0.8 0 0 1307.5026 627.2825
  A 26.68 26.33 -0.8 0 0 1334.5476 653.2374
  A 26.68 26.33 -0.8 0 0 1360.8574 626.5375
  Z"
/>
<path fill="#e9b649" d="
  M 1505.82 650.79
  L 1508.30 645.92
  A 0.23 0.23 0.0 0 1 1508.66 645.84
  Q 1519.47 654.83 1534.20 653.04
  C 1539.84 652.35 1545.66 649.43 1546.30 643.32
  C 1548.25 624.85 1508.17 635.87 1507.34 612.96
  C 1506.96 602.59 1514.05 596.89 1523.82 595.08
  Q 1536.80 592.67 1549.91 599.46
  A 1.03 1.02 24.5 0 1 1550.40 600.75
  L 1548.69 605.10
  A 0.71 0.71 0.0 0 1 1547.65 605.45
  C 1539.64 600.50 1526.52 597.87 1518.28 603.80
  C 1512.90 607.67 1512.61 615.57 1518.33 619.41
  Q 1521.22 621.36 1524.33 622.17
  Q 1534.51 624.81 1539.65 626.28
  C 1546.95 628.37 1552.94 632.80 1553.23 641.18
  C 1553.55 650.72 1546.76 656.71 1537.90 658.48
  C 1527.35 660.57 1514.09 658.86 1505.90 651.22
  A 0.37 0.36 -56.5 0 1 1505.82 650.79
  Z"
/>
<path fill="#e9b649" d="
  M 1820.48 650.79
  L 1822.95 645.92
  A 0.23 0.23 0.0 0 1 1823.31 645.84
  Q 1834.13 654.83 1848.86 653.02
  C 1854.50 652.33 1860.31 649.40 1860.95 643.29
  C 1862.89 624.83 1822.82 635.88 1821.97 612.98
  C 1821.59 602.61 1828.67 596.90 1838.43 595.08
  Q 1851.41 592.66 1864.52 599.45
  A 1.03 1.02 24.5 0 1 1865.01 600.73
  L 1863.31 605.08
  A 0.71 0.71 0.0 0 1 1862.27 605.44
  C 1854.25 600.49 1841.14 597.87 1832.91 603.81
  C 1827.53 607.68 1827.24 615.58 1832.96 619.41
  Q 1835.85 621.36 1838.96 622.16
  Q 1849.14 624.80 1854.28 626.27
  C 1861.59 628.35 1867.58 632.77 1867.87 641.15
  C 1868.20 650.69 1861.42 656.69 1852.57 658.46
  C 1842.01 660.56 1828.76 658.86 1820.56 651.22
  A 0.37 0.36 -56.5 0 1 1820.48 650.79
  Z"
/>
<path fill="#e9b649" d="
  M 362.93 658.48
  A 0.28 0.28 0.0 0 1 362.65 658.76
  L 356.30 658.75
  A 0.30 0.30 0.0 0 1 356.00 658.45
  L 356.02 595.63
  A 0.57 0.56 -90.0 0 1 356.58 595.06
  L 399.41 595.08
  A 0.26 0.26 0.0 0 1 399.67 595.34
  L 399.71 600.66
  A 0.29 0.29 0.0 0 1 399.42 600.95
  L 363.33 600.93
  A 0.40 0.39 -90.0 0 0 362.94 601.33
  L 362.94 625.18
  A 0.58 0.57 0.0 0 0 363.52 625.75
  L 395.35 625.76
  A 0.32 0.32 0.0 0 1 395.67 626.08
  L 395.72 631.39
  A 0.37 0.37 0.0 0 1 395.35 631.76
  L 363.33 631.74
  A 0.39 0.38 0.0 0 0 362.94 632.12
  L 362.93 658.48
  Z"
/>
<path fill="#e9b649" d="
  M 491.50 658.58
  A 0.12 0.11 -17.2 0 1 491.40 658.76
  L 484.22 658.76
  A 0.61 0.60 -17.7 0 1 483.73 658.51
  L 469.88 639.08
  A 0.84 0.84 0.0 0 0 469.19 638.72
  L 448.08 638.72
  A 0.61 0.61 0.0 0 0 447.47 639.33
  L 447.47 658.50
  A 0.26 0.26 0.0 0 1 447.21 658.76
  L 440.74 658.76
  A 0.25 0.24 0.0 0 1 440.49 658.52
  L 440.49 595.67
  A 0.57 0.56 -90.0 0 1 441.05 595.10
  Q 457.75 595.02 466.44 595.15
  C 477.63 595.32 488.15 600.75 490.08 612.63
  Q 492.52 627.60 480.51 635.14
  C 479.51 635.76 477.68 636.19 476.70 636.81
  A 0.55 0.55 0.0 0 0 476.54 637.60
  L 491.50 658.58
  Z
  M 447.45 601.26
  L 447.45 632.48
  A 0.23 0.23 0.0 0 0 447.68 632.71
  L 466.54 632.71
  A 16.97 14.71 0.0 0 0 483.51 618.00
  L 483.51 615.74
  A 16.97 14.71 -0.0 0 0 466.54 601.03
  L 447.68 601.03
  A 0.23 0.23 0.0 0 0 447.45 601.26
  Z"
/>
<path fill="#e9b649" d="
  M 540.14 601.31
  L 540.14 623.12
  A 0.38 0.38 0.0 0 0 540.52 623.50
  L 572.71 623.50
  A 0.38 0.38 0.0 0 1 573.09 623.88
  L 573.09 629.12
  A 0.38 0.38 0.0 0 1 572.71 629.50
  L 540.54 629.50
  A 0.38 0.38 0.0 0 0 540.16 629.88
  L 540.16 652.38
  A 0.38 0.38 0.0 0 0 540.54 652.76
  L 578.07 652.76
  A 0.38 0.38 0.0 0 1 578.45 653.14
  L 578.45 658.38
  A 0.38 0.38 0.0 0 1 578.07 658.76
  L 533.66 658.76
  A 0.38 0.38 0.0 0 1 533.28 658.38
  L 533.28 595.45
  A 0.38 0.38 0.0 0 1 533.66 595.07
  L 576.59 595.07
  A 0.38 0.38 0.0 0 1 576.97 595.45
  L 576.97 600.55
  A 0.38 0.38 0.0 0 1 576.59 600.93
  L 540.52 600.93
  A 0.38 0.38 0.0 0 0 540.14 601.31
  Z"
/>
<path fill="#e9b649" d="
  M 704.26 658.39
  L 704.26 596.19
  A 0.36 0.36 0.0 0 1 704.58 595.83
  L 710.79 595.08
  A 0.36 0.36 0.0 0 1 711.19 595.44
  L 711.19 622.93
  A 0.36 0.36 0.0 0 0 711.55 623.29
  L 750.39 623.29
  A 0.36 0.36 0.0 0 0 750.75 622.93
  L 750.75 595.42
  A 0.36 0.36 0.0 0 1 751.11 595.06
  L 757.12 595.06
  A 0.36 0.36 0.0 0 1 757.48 595.42
  L 757.48 658.40
  A 0.36 0.36 0.0 0 1 757.12 658.76
  L 751.11 658.76
  A 0.36 0.36 0.0 0 1 750.75 658.40
  L 750.75 629.86
  A 0.36 0.36 0.0 0 0 750.39 629.50
  L 711.56 629.50
  A 0.36 0.36 0.0 0 0 711.20 629.86
  L 711.20 658.39
  A 0.36 0.36 0.0 0 1 710.84 658.75
  L 704.62 658.75
  A 0.36 0.36 0.0 0 1 704.26 658.39
  Z"
/>
<path fill="#e9b649" d="
  M 982.86 595.41
  L 982.88 600.68
  A 0.29 0.29 0.0 0 1 982.59 600.97
  L 946.61 600.92
  A 0.57 0.56 -89.9 0 0 946.05 601.49
  L 946.04 622.93
  A 0.56 0.56 0.0 0 0 946.60 623.49
  L 978.61 623.52
  A 0.37 0.36 0.1 0 1 978.98 623.88
  L 978.96 629.18
  A 0.34 0.33 0.1 0 1 978.62 629.51
  L 946.65 629.49
  A 0.61 0.61 0.0 0 0 946.03 630.10
  L 946.04 652.27
  A 0.46 0.46 0.0 0 0 946.50 652.73
  L 983.94 652.76
  A 0.33 0.33 0.0 0 1 984.27 653.08
  L 984.31 658.44
  A 0.32 0.31 -89.9 0 1 984.00 658.76
  L 939.76 658.73
  A 0.61 0.61 0.0 0 1 939.15 658.12
  L 939.20 595.63
  A 0.57 0.56 -89.9 0 1 939.76 595.06
  L 982.56 595.11
  A 0.30 0.30 0.0 0 1 982.86 595.41
  Z"
/>
<path fill="#e9b649" d="
  M 1049.31 641.74
  Q 1033.50 641.73 1032.29 641.73
  A 0.68 0.67 12.2 0 0 1031.66 642.13
  L 1024.18 658.48
  A 0.41 0.40 -77.4 0 1 1023.81 658.72
  L 1017.00 658.71
  A 0.14 0.14 0.0 0 1 1016.87 658.51
  L 1045.65 595.64
  A 0.90 0.90 0.0 0 1 1046.45 595.11
  Q 1047.87 595.07 1049.33 595.07
  Q 1050.78 595.07 1052.20 595.11
  A 0.90 0.90 0.0 0 1 1053.00 595.65
  L 1081.73 658.54
  A 0.14 0.14 0.0 0 1 1081.60 658.74
  L 1074.79 658.74
  A 0.41 0.40 77.5 0 1 1074.42 658.50
  L 1066.95 642.14
  A 0.68 0.67 -12.1 0 0 1066.33 641.74
  Q 1065.12 641.74 1049.31 641.74
  Z
  M 1034.52 635.57
  A 0.35 0.35 0.0 0 0 1034.84 636.06
  L 1063.72 636.06
  A 0.35 0.35 0.0 0 0 1064.04 635.57
  L 1049.60 603.23
  A 0.35 0.35 0.0 0 0 1048.96 603.23
  L 1034.52 635.57
  Z"
/>
<path fill="#e9b649" d="
  M 1119.28 658.40
  L 1119.28 595.43
  A 0.36 0.36 0.0 0 1 1119.64 595.07
  L 1162.58 595.07
  A 0.36 0.36 0.0 0 1 1162.94 595.43
  L 1162.94 600.58
  A 0.36 0.36 0.0 0 1 1162.58 600.94
  L 1126.56 600.94
  A 0.36 0.36 0.0 0 0 1126.20 601.30
  L 1126.20 625.39
  A 0.36 0.36 0.0 0 0 1126.56 625.75
  L 1158.60 625.75
  A 0.36 0.36 0.0 0 1 1158.96 626.11
  L 1158.96 631.39
  A 0.36 0.36 0.0 0 1 1158.60 631.75
  L 1126.57 631.75
  A 0.36 0.36 0.0 0 0 1126.21 632.11
  L 1126.21 658.40
  A 0.36 0.36 0.0 0 1 1125.85 658.76
  L 1119.64 658.76
  A 0.36 0.36 0.0 0 1 1119.28 658.40
  Z"
/>
<path fill="#e9b649" d="
  M 1409.70 595.44
  A 0.30 0.30 0.0 0 1 1409.99 595.14
  L 1437.66 595.09
  A 32.05 30.53 -0.1 0 1 1469.77 625.57
  L 1469.77 628.13
  A 32.05 30.53 -0.1 0 1 1437.78 658.71
  L 1410.11 658.76
  A 0.30 0.30 0.0 0 1 1409.81 658.46
  L 1409.70 595.44
  Z
  M 1416.70 601.37
  L 1416.78 652.43
  A 0.33 0.33 0.0 0 0 1417.12 652.76
  L 1436.79 652.73
  A 26.28 25.28 -0.1 0 0 1463.02 627.40
  L 1463.02 626.24
  A 26.28 25.28 -0.1 0 0 1436.69 601.01
  L 1417.02 601.04
  A 0.33 0.33 0.0 0 0 1416.70 601.37
  Z"
/>
<path fill="#e9b649" d="
  M 1696.75 658.57
  A 0.12 0.11 -17.2 0 1 1696.65 658.75
  L 1689.47 658.75
  A 0.61 0.60 -17.7 0 1 1688.98 658.50
  L 1675.14 639.07
  A 0.84 0.84 0.0 0 0 1674.45 638.71
  L 1653.34 638.71
  A 0.61 0.61 0.0 0 0 1652.73 639.32
  L 1652.73 658.49
  A 0.26 0.26 0.0 0 1 1652.47 658.75
  L 1646.00 658.75
  A 0.25 0.24 0.0 0 1 1645.75 658.51
  L 1645.76 595.67
  A 0.57 0.56 -90.0 0 1 1646.32 595.10
  Q 1663.02 595.02 1671.70 595.15
  C 1682.89 595.32 1693.41 600.75 1695.34 612.63
  Q 1697.78 627.60 1685.77 635.14
  C 1684.77 635.75 1682.94 636.18 1681.96 636.80
  A 0.55 0.55 0.0 0 0 1681.80 637.59
  L 1696.75 658.57
  Z
  M 1652.76 601.31
  L 1652.76 632.43
  A 0.27 0.27 0.0 0 0 1653.03 632.70
  L 1671.87 632.70
  A 16.89 14.72 -0.0 0 0 1688.76 617.98
  L 1688.76 615.76
  A 16.89 14.72 0.0 0 0 1671.87 601.04
  L 1653.03 601.04
  A 0.27 0.27 0.0 0 0 1652.76 601.31
  Z"
/>
<path fill="#e9b649" d="
  M 1782.23 595.38
  L 1782.26 600.65
  A 0.29 0.29 0.0 0 1 1781.97 600.94
  L 1745.97 600.93
  A 0.57 0.56 -90.0 0 0 1745.41 601.50
  L 1745.43 622.95
  A 0.56 0.56 0.0 0 0 1745.99 623.51
  L 1778.00 623.50
  A 0.37 0.36 0.0 0 1 1778.37 623.86
  L 1778.36 629.16
  A 0.34 0.33 0.0 0 1 1778.02 629.49
  L 1746.03 629.51
  A 0.61 0.61 0.0 0 0 1745.42 630.12
  L 1745.45 652.29
  A 0.46 0.46 0.0 0 0 1745.91 652.75
  L 1783.37 652.75
  A 0.33 0.33 0.0 0 1 1783.70 653.07
  L 1783.74 658.43
  A 0.32 0.31 -90.0 0 1 1783.43 658.75
  L 1739.17 658.76
  A 0.61 0.61 0.0 0 1 1738.56 658.15
  L 1738.55 595.64
  A 0.57 0.56 -90.0 0 1 1739.11 595.07
  L 1781.93 595.08
  A 0.30 0.30 0.0 0 1 1782.23 595.38
  Z"
/>
<path fill="#e9b649" d="
  M 1924.40 595.07
  Q 1935.44 595.08 1949.88 595.07
  A 0.38 0.38 0.0 0 1 1950.26 595.45
  L 1950.26 600.57
  A 0.36 0.36 0.0 0 1 1949.90 600.93
  L 1928.28 600.93
  A 0.53 0.53 0.0 0 0 1927.75 601.46
  L 1927.75 658.05
  A 0.66 0.66 0.0 0 1 1927.17 658.70
  Q 1926.76 658.75 1924.42 658.75
  Q 1922.07 658.75 1921.67 658.71
  A 0.66 0.66 0.0 0 1 1921.09 658.05
  L 1921.05 601.46
  A 0.53 0.53 0.0 0 0 1920.52 600.93
  L 1898.90 600.95
  A 0.36 0.36 0.0 0 1 1898.53 600.59
  L 1898.53 595.47
  A 0.38 0.38 0.0 0 1 1898.91 595.09
  Q 1913.35 595.09 1924.40 595.07
  Z"
/>
<path fill="#e9b649" d="
  M 2006.97 595.04
  Q 2008.43 595.04 2009.85 595.09
  A 0.90 0.90 0.0 0 1 2010.65 595.62
  L 2039.42 658.60
  A 0.14 0.14 0.0 0 1 2039.29 658.80
  L 2032.47 658.80
  A 0.41 0.40 77.5 0 1 2032.10 658.56
  L 2024.62 642.18
  A 0.68 0.68 0.0 0 0 2024.00 641.78
  Q 2022.78 641.78 2006.95 641.77
  Q 1991.12 641.77 1989.91 641.77
  A 0.68 0.68 0.0 0 0 1989.28 642.16
  L 1981.79 658.54
  A 0.41 0.40 -77.4 0 1 1981.42 658.78
  L 1974.60 658.77
  A 0.14 0.14 0.0 0 1 1974.47 658.57
  L 2003.29 595.62
  A 0.90 0.90 0.0 0 1 2004.09 595.08
  Q 2005.52 595.04 2006.97 595.04
  Z
  M 1992.13 635.63
  A 0.31 0.31 0.0 0 0 1992.41 636.07
  L 2021.43 636.07
  A 0.31 0.31 0.0 0 0 2021.71 635.63
  L 2007.20 603.16
  A 0.31 0.31 0.0 0 0 2006.64 603.16
  L 1992.13 635.63
  Z"
/>
<path fill="#e9b649" d="
  M 2101.25 653.08
  C 2114.57 653.08 2120.25 644.78 2120.54 632.52
  Q 2120.55 631.94 2120.54 595.35
  A 0.28 0.28 0.0 0 1 2120.82 595.07
  L 2127.16 595.07
  A 0.32 0.32 0.0 0 1 2127.48 595.39
  Q 2127.44 608.56 2127.48 627.96
  Q 2127.50 639.59 2125.41 644.69
  C 2121.20 654.94 2112.48 659.25 2101.25 659.25
  C 2090.01 659.24 2081.30 654.93 2077.10 644.68
  Q 2075.01 639.57 2075.03 627.94
  Q 2075.08 608.54 2075.05 595.37
  A 0.32 0.32 0.0 0 1 2075.37 595.05
  L 2081.71 595.06
  A 0.28 0.28 0.0 0 1 2081.99 595.34
  Q 2081.96 631.93 2081.97 632.51
  C 2082.25 644.76 2087.93 653.07 2101.25 653.08
  Z"
/>
<path fill="#e9b649" d="
  M 2225.54 658.56
  A 0.12 0.11 -17.2 0 1 2225.44 658.74
  L 2218.26 658.74
  A 0.61 0.60 -17.7 0 1 2217.77 658.49
  L 2203.92 639.06
  A 0.84 0.84 0.0 0 0 2203.23 638.70
  L 2182.12 638.70
  A 0.61 0.61 0.0 0 0 2181.51 639.31
  L 2181.51 658.48
  A 0.26 0.26 0.0 0 1 2181.25 658.74
  L 2174.78 658.73
  A 0.25 0.24 0.0 0 1 2174.53 658.49
  L 2174.54 595.65
  A 0.57 0.56 -90.0 0 1 2175.10 595.08
  Q 2191.80 595.00 2200.49 595.13
  C 2211.67 595.31 2222.19 600.74 2224.12 612.61
  Q 2226.56 627.58 2214.55 635.12
  C 2213.55 635.74 2211.72 636.17 2210.74 636.79
  A 0.55 0.55 0.0 0 0 2210.58 637.58
  L 2225.54 658.56
  Z
  M 2181.57 601.26
  L 2181.41 632.34
  A 0.29 0.29 0.0 0 0 2181.70 632.63
  L 2200.51 632.73
  A 16.96 14.55 0.3 0 0 2217.54 618.26
  L 2217.56 615.70
  A 16.96 14.55 0.3 0 0 2200.67 601.07
  L 2181.86 600.97
  A 0.29 0.29 0.0 0 0 2181.57 601.26
  Z"
/>
<path fill="#e9b649" d="
  M 2289.68 641.74
  Q 2273.87 641.73 2272.65 641.73
  A 0.68 0.68 0.0 0 0 2272.03 642.13
  L 2264.54 658.49
  A 0.41 0.40 -77.4 0 1 2264.18 658.73
  L 2257.36 658.72
  A 0.14 0.14 0.0 0 1 2257.23 658.52
  L 2286.03 595.63
  A 0.90 0.90 0.0 0 1 2286.83 595.10
  Q 2288.25 595.06 2289.71 595.06
  Q 2291.16 595.06 2292.58 595.10
  A 0.90 0.90 0.0 0 1 2293.38 595.64
  L 2322.11 658.55
  A 0.14 0.14 0.0 0 1 2321.98 658.75
  L 2315.17 658.75
  A 0.41 0.40 77.5 0 1 2314.80 658.51
  L 2307.33 642.15
  A 0.68 0.68 0.0 0 0 2306.71 641.75
  Q 2305.50 641.75 2289.68 641.74
  Z
  M 2274.87 635.59
  A 0.34 0.34 0.0 0 0 2275.18 636.07
  L 2304.10 636.07
  A 0.34 0.34 0.0 0 0 2304.41 635.59
  L 2289.95 603.22
  A 0.34 0.34 0.0 0 0 2289.33 603.22
  L 2274.87 635.59
  Z"
/>
<path fill="#e9b649" d="
  M 2388.87 624.62
  Q 2397.33 634.96 2405.50 645.60
  A 0.31 0.31 0.0 0 0 2406.05 645.41
  L 2406.05 595.29
  A 0.25 0.25 0.0 0 1 2406.30 595.04
  L 2412.73 595.04
  A 0.25 0.24 90.0 0 1 2412.97 595.29
  L 2412.97 658.20
  A 0.53 0.53 0.0 0 1 2412.44 658.73
  L 2407.84 658.73
  A 1.58 1.56 -18.8 0 1 2406.60 658.13
  Q 2386.20 632.26 2383.65 629.14
  Q 2375.20 618.81 2367.02 608.17
  A 0.31 0.31 0.0 0 0 2366.47 608.36
  L 2366.47 658.48
  A 0.25 0.25 0.0 0 1 2366.22 658.73
  L 2359.79 658.73
  A 0.25 0.24 90.0 0 1 2359.55 658.48
  L 2359.55 595.57
  A 0.53 0.53 0.0 0 1 2360.08 595.04
  L 2364.68 595.04
  A 1.58 1.56 -18.8 0 1 2365.92 595.64
  Q 2386.32 621.50 2388.87 624.62
  Z"
/>
<path fill="#e9b649" d="
  M 2476.43 658.75
  Q 2474.09 658.75 2473.69 658.71
  A 0.66 0.66 0.0 0 1 2473.10 658.05
  L 2473.05 601.46
  A 0.53 0.53 0.0 0 0 2472.52 600.93
  L 2450.90 600.95
  A 0.36 0.36 0.0 0 1 2450.54 600.60
  L 2450.53 595.48
  A 0.38 0.38 0.0 0 1 2450.91 595.09
  Q 2465.35 595.09 2476.40 595.08
  Q 2487.44 595.08 2501.89 595.06
  A 0.38 0.38 0.0 0 1 2502.26 595.45
  L 2502.26 600.57
  A 0.36 0.36 0.0 0 1 2501.90 600.93
  L 2480.28 600.93
  A 0.53 0.53 0.0 0 0 2479.75 601.46
  L 2479.76 658.05
  A 0.66 0.66 0.0 0 1 2479.18 658.71
  Q 2478.78 658.75 2476.43 658.75
  Z"
/>
<path fill="#e9b649" d="
  M 2805.25 604.19
  L 2805.25 626.16
  A 0.58 0.57 -90.0 0 1 2804.68 626.74
  L 2796.56 626.74
  A 0.50 0.49 90.0 0 1 2796.07 626.24
  L 2796.07 624.82
  A 0.57 0.57 0.0 0 0 2795.50 624.25
  L 2737.79 624.25
  A 0.33 0.32 -84.7 0 0 2737.47 624.52
  L 2736.15 631.78
  A 0.26 0.26 0.0 0 0 2736.41 632.09
  L 2809.46 632.09
  A 0.44 0.44 0.0 0 1 2809.90 632.54
  Q 2809.87 633.41 2809.34 642.52
  Q 2808.77 652.21 2801.49 656.08
  Q 2797.85 658.02 2788.77 657.99
  Q 2773.37 657.93 2767.63 657.81
  A 0.42 0.42 0.0 0 1 2767.22 657.46
  L 2765.70 649.41
  A 0.20 0.20 0.0 0 1 2765.90 649.17
  Q 2767.40 649.25 2783.51 649.95
  Q 2792.73 650.36 2795.35 649.01
  Q 2800.43 646.41 2800.54 638.84
  A 0.34 0.34 0.0 0 0 2800.20 638.50
  L 2726.16 638.50
  A 0.38 0.37 5.1 0 1 2725.79 638.06
  L 2729.43 618.10
  A 0.70 0.69 -84.4 0 1 2730.11 617.53
  L 2795.83 617.53
  A 0.25 0.25 0.0 0 0 2796.08 617.28
  L 2796.08 610.16
  A 0.23 0.23 0.0 0 0 2795.85 609.93
  L 2726.02 609.93
  A 0.24 0.24 0.0 0 1 2725.78 609.69
  L 2725.78 603.82
  A 0.29 0.28 90.0 0 1 2726.06 603.53
  L 2804.60 603.53
  A 0.66 0.65 -90.0 0 1 2805.25 604.19
  Z"
/>
<path fill="#e9b649" d="
  M 2703.12 659.10
  L 2694.37 655.67
  A 0.54 0.53 20.4 0 1 2694.06 655.01
  Q 2701.95 631.61 2707.63 607.17
  A 0.19 0.19 0.0 0 1 2707.90 607.05
  L 2716.33 611.33
  A 0.41 0.40 21.2 0 1 2716.54 611.80
  L 2703.86 658.73
  A 0.56 0.55 18.0 0 1 2703.12 659.10
  Z"
/>
</svg>
