<?xml version="1.0" encoding="UTF-8" standalone="no"?>
<!DOCTYPE svg PUBLIC "-//W3C//DTD SVG 1.1//EN" "http://www.w3.org/Graphics/SVG/1.1/DTD/svg11.dtd">
<svg xmlns="http://www.w3.org/2000/svg" version="1.1" viewBox="0.00 0.00 1773.00 1773.00">
<path fill="#c99a32" d="
  M 780.07 166.26
  C 783.05 148.74 817.07 143.72 830.25 143.44
  Q 850.52 143.02 866.13 143.59
  C 870.95 143.77 876.06 144.75 881.43 146.42
  Q 891.30 149.48 913.54 156.47
  Q 917.97 157.86 922.37 160.63
  Q 939.71 171.52 956.16 182.59
  Q 988.10 204.07 1013.29 230.76
  Q 1042.29 261.48 1067.21 292.82
  Q 1082.87 312.52 1093.41 328.31
  Q 1107.73 349.77 1128.20 383.87
  C 1132.21 390.54 1136.65 399.75 1135.03 407.65
  C 1132.74 418.82 1118.04 420.98 1108.99 420.81
  Q 1105.56 420.74 1092.01 420.33
  Q 1077.97 419.90 1066.42 426.52
  C 1060.49 429.92 1055.86 431.14 1049.99 430.94
  C 1038.24 430.52 1026.82 427.37 1015.38 423.44
  Q 1002.60 419.04 989.74 412.26
  C 983.65 409.05 978.25 406.70 975.73 400.91
  Q 969.47 386.58 966.35 370.20
  Q 964.98 363.01 965.78 358.74
  C 967.76 348.18 975.73 341.42 980.91 332.35
  C 986.98 321.73 989.85 308.51 985.85 296.94
  Q 984.07 291.77 980.52 285.40
  C 977.15 279.35 973.26 274.67 965.60 275.82
  Q 961.50 276.44 948.31 278.30
  Q 942.34 279.14 941.54 272.96
  C 940.96 268.45 940.85 265.63 939.57 262.57
  Q 934.95 251.55 922.23 251.51
  Q 914.77 251.50 907.79 250.49
  C 901.54 249.59 902.73 242.94 902.48 236.75
  C 902.05 225.98 892.87 218.65 883.17 215.82
  Q 880.14 214.94 878.10 215.39
  Q 870.40 217.09 867.87 217.34
  C 858.02 218.32 856.63 211.17 855.93 203.43
  C 855.34 196.81 852.25 191.87 846.65 187.35
  Q 823.85 168.97 794.92 170.21
  C 789.29 170.45 786.29 171.09 781.53 168.98
  A 2.51 2.51 0.0 0 1 780.07 166.26
  Z"
/>
<path fill="#c99a32" d="
  M 816.38 202.24
  A 1.81 1.80 51.4 0 1 818.72 202.51
  Q 821.89 205.94 823.22 210.49
  C 824.12 213.58 822.85 216.80 823.02 220.03
  A 3.49 3.43 31.0 0 0 823.35 221.31
  Q 825.70 226.10 830.49 227.54
  Q 838.71 230.01 843.11 232.07
  C 850.69 235.62 851.19 242.03 852.29 249.79
  C 853.12 255.57 854.62 259.36 860.56 259.91
  Q 867.35 260.55 870.12 260.90
  C 883.63 262.61 889.40 274.03 895.01 285.50
  C 897.85 291.32 903.33 290.04 908.53 289.08
  C 913.69 288.13 918.86 288.16 921.32 293.44
  C 923.10 297.27 922.76 304.24 923.34 307.89
  C 924.77 316.87 933.15 321.64 942.03 320.74
  C 946.71 320.27 953.01 318.33 958.15 319.19
  A 1.87 1.87 0.0 0 1 959.72 321.13
  Q 959.63 323.00 958.79 325.55
  C 956.12 333.75 950.57 341.66 945.56 348.52
  C 940.47 355.49 933.57 354.02 926.82 350.42
  Q 916.08 344.69 906.16 339.08
  C 881.67 325.21 858.97 308.30 840.62 287.14
  Q 830.27 275.20 823.74 262.53
  C 818.80 252.93 814.94 245.16 811.78 236.40
  C 808.27 226.70 809.49 214.67 813.44 205.96
  Q 814.55 203.49 816.38 202.24
  Z"
/>
<ellipse fill="#c99a32" cx="0.00" cy="0.00" transform="translate(690.77,291.76) rotate(-119.7)" rx="10.83" ry="3.57"/>
<path fill="#c99a32" d="
  M 629.33 371.08
  A 1.51 1.51 0.0 0 1 631.01 369.08
  Q 634.82 369.76 638.35 372.18
  Q 665.99 391.12 673.52 397.24
  Q 697.10 416.39 706.08 422.68
  Q 721.45 433.46 739.38 444.66
  C 744.84 448.07 748.82 445.77 753.71 441.70
  C 758.42 437.77 763.08 436.20 768.80 434.97
  C 771.42 434.41 773.07 433.17 774.43 431.13
  A 3.32 3.31 55.6 0 0 774.91 428.54
  C 774.10 425.07 772.80 422.11 770.61 418.99
  Q 741.03 376.99 712.55 332.95
  C 710.51 329.79 706.99 321.97 708.76 318.26
  A 1.79 1.73 -59.1 0 1 711.39 317.55
  Q 716.43 321.30 719.71 326.27
  Q 757.83 383.98 786.35 423.17
  C 788.42 426.01 791.03 429.05 793.96 431.37
  C 798.43 434.92 806.67 422.03 808.33 418.82
  C 811.69 412.37 814.47 405.90 818.41 401.05
  C 832.32 383.88 854.12 377.98 875.16 383.36
  Q 884.75 385.81 899.02 394.61
  C 914.47 404.15 927.14 412.05 940.54 422.71
  Q 944.32 425.72 957.81 436.16
  Q 960.69 438.39 970.05 448.69
  C 977.79 457.21 987.63 463.21 996.80 471.70
  Q 1014.39 487.98 1066.38 536.91
  C 1070.93 541.18 1076.86 543.55 1083.79 544.41
  C 1091.80 545.40 1099.05 546.05 1105.06 551.46
  C 1108.34 554.42 1114.06 559.73 1119.81 563.23
  C 1129.72 569.24 1138.33 575.22 1146.17 583.65
  Q 1157.82 596.16 1163.78 603.71
  Q 1165.36 605.72 1164.20 608.21
  C 1159.21 618.91 1152.28 629.44 1160.52 639.70
  Q 1164.03 644.08 1183.67 668.59
  C 1196.17 684.19 1212.05 697.53 1227.58 710.90
  Q 1233.59 716.07 1235.77 723.58
  A 1.24 1.24 0.0 0 1 1234.63 725.17
  Q 1233.38 725.22 1231.90 724.40
  Q 1221.79 718.80 1213.38 710.89
  Q 1168.21 668.46 1159.43 660.32
  Q 1153.49 654.81 1149.58 651.91
  C 1143.77 647.61 1137.68 648.01 1130.73 647.30
  Q 1121.16 646.34 1116.12 637.62
  C 1112.79 631.86 1110.07 626.28 1105.97 620.66
  C 1098.13 609.92 1087.60 601.32 1079.02 591.93
  A 10.32 10.26 -11.4 0 0 1074.81 589.15
  C 1064.83 585.64 1056.97 579.53 1049.43 572.00
  C 1045.58 568.16 1042.92 565.55 1044.78 560.55
  C 1046.11 556.99 1048.29 552.62 1048.59 549.25
  C 1049.53 538.68 1040.32 534.86 1033.26 528.14
  C 1026.91 522.09 1019.54 515.95 1013.28 508.53
  Q 1001.54 494.62 989.75 484.49
  C 969.91 467.44 964.69 462.69 949.46 448.57
  Q 934.97 435.12 920.00 424.04
  C 915.83 420.96 913.00 419.23 908.16 417.45
  Q 898.79 414.00 894.43 411.58
  Q 884.61 406.10 878.98 403.79
  Q 864.72 397.94 850.56 402.10
  C 841.48 404.76 832.01 411.39 827.04 419.78
  Q 822.62 427.24 821.80 436.49
  C 821.33 441.82 826.11 442.85 830.82 442.90
  Q 837.08 442.97 842.01 443.93
  C 853.15 446.10 846.93 459.90 844.30 466.38
  Q 841.91 472.25 842.32 474.10
  Q 843.18 478.06 847.75 479.55
  Q 858.98 483.22 859.58 483.46
  C 870.44 487.71 880.10 494.28 890.79 499.56
  Q 913.26 510.67 927.38 517.82
  Q 949.76 529.16 952.95 530.94
  Q 965.07 537.70 976.76 547.09
  C 980.49 550.09 987.55 555.74 993.95 559.72
  C 1002.85 565.25 1008.19 568.71 1015.80 575.48
  Q 1026.03 584.58 1038.52 591.88
  A 7.33 7.17 -8.1 0 1 1039.76 592.79
  C 1047.39 599.72 1051.96 604.49 1058.29 607.95
  C 1063.57 610.84 1066.67 612.33 1069.76 615.94
  C 1071.68 618.19 1075.11 621.46 1077.02 623.07
  C 1085.27 629.99 1094.23 636.68 1102.36 644.17
  Q 1116.17 656.88 1117.29 676.05
  Q 1117.88 686.10 1109.22 691.23
  Q 1102.32 695.32 1095.62 698.12
  Q 1051.07 716.71 1038.83 722.57
  Q 1019.59 731.77 1010.02 749.24
  Q 1001.37 765.04 999.15 768.12
  C 991.23 779.12 971.14 795.45 958.73 781.04
  Q 952.96 774.34 947.70 766.57
  Q 930.48 741.12 910.71 712.81
  Q 893.81 688.61 888.25 681.60
  Q 883.76 675.94 872.27 663.41
  Q 864.76 655.20 857.25 643.89
  Q 836.91 613.23 814.92 578.17
  C 806.12 564.14 798.65 549.73 789.24 532.55
  Q 785.00 524.81 776.52 521.75
  C 769.03 519.04 762.97 518.08 756.58 512.73
  Q 752.40 509.23 755.22 505.29
  C 758.38 500.87 760.70 498.20 762.17 494.36
  Q 763.65 490.48 764.44 487.09
  A 1.42 1.41 19.3 0 0 763.67 485.49
  Q 753.24 480.53 741.94 482.91
  C 733.10 484.77 721.89 486.32 714.46 492.80
  C 701.40 504.20 696.19 524.48 706.18 539.55
  C 708.13 542.49 711.08 546.98 712.91 550.75
  Q 716.94 559.09 724.87 572.40
  Q 736.55 592.02 750.45 606.36
  Q 768.98 625.48 776.87 635.00
  Q 791.02 652.07 797.84 659.53
  C 803.85 666.12 811.88 672.94 818.09 679.25
  Q 822.97 684.21 832.68 694.07
  C 834.74 696.16 837.90 698.18 841.18 697.88
  C 844.05 697.62 848.09 693.43 850.96 691.71
  Q 856.08 688.63 859.57 693.24
  Q 881.07 721.64 914.86 762.55
  C 920.11 768.91 922.54 773.51 924.58 780.97
  Q 928.29 794.49 931.16 802.13
  C 934.26 810.39 939.64 817.18 945.34 824.15
  C 949.01 828.65 953.51 833.40 956.30 838.40
  C 960.46 845.85 963.94 852.88 967.00 861.00
  C 970.86 871.28 976.05 881.84 980.38 892.38
  Q 985.18 904.05 986.54 909.48
  Q 987.70 914.12 989.09 919.81
  C 990.54 925.73 992.40 928.08 997.08 932.03
  A 6.44 6.40 10.4 0 1 998.97 934.75
  C 1000.16 938.05 1000.55 942.63 1000.45 946.50
  Q 999.87 969.11 996.41 990.15
  C 994.40 1002.40 990.19 1014.75 982.85 1024.30
  Q 980.84 1026.92 978.70 1028.22
  A 1.87 1.86 -22.4 0 1 975.92 1027.07
  Q 975.30 1024.57 976.16 1021.93
  Q 978.09 1015.99 980.58 1008.09
  Q 987.41 986.42 987.95 964.76
  C 988.29 951.28 985.71 938.45 980.96 924.09
  Q 977.48 913.61 974.28 902.75
  Q 970.27 889.18 967.10 881.54
  Q 960.47 865.59 947.69 848.05
  Q 934.39 829.81 921.67 815.12
  Q 916.80 809.50 909.74 811.67
  C 900.51 814.50 894.60 815.14 887.01 808.32
  C 880.54 802.51 873.28 797.71 865.15 795.12
  C 860.30 793.57 853.23 793.46 848.78 792.52
  Q 836.36 789.88 833.83 779.60
  Q 832.82 775.51 834.37 764.93
  Q 836.23 752.22 838.25 734.78
  C 839.33 725.41 836.15 719.62 830.16 712.74
  C 811.20 690.97 799.45 678.52 777.75 656.00
  C 770.37 648.35 757.80 639.88 748.66 630.08
  Q 728.54 608.51 707.01 579.07
  C 694.66 562.19 683.05 541.12 684.29 519.44
  Q 685.61 496.41 704.90 483.71
  C 712.21 478.90 723.24 475.27 729.18 472.89
  C 735.09 470.52 741.25 465.25 737.03 458.75
  C 735.06 455.72 733.22 453.64 730.26 451.50
  C 719.15 443.46 707.50 433.74 696.69 423.37
  Q 693.25 420.06 688.05 416.63
  Q 671.35 405.62 662.55 398.16
  Q 648.84 386.55 638.15 380.27
  C 634.00 377.83 630.80 375.11 629.33 371.08
  Z"
/>
<path fill="#c99a32" d="
  M 618.70 363.96
  A 0.46 0.46 0.0 0 1 618.13 363.97
  L 589.24 342.25
  A 0.77 0.77 0.0 0 1 589.70 340.86
  C 591.43 340.85 595.36 342.13 596.84 342.87
  Q 610.21 349.62 618.75 362.79
  Q 619.23 363.53 618.70 363.96
  Z"
/>
<path fill="#c99a32" d="
  M 530.79 385.05
  C 532.81 389.66 532.16 393.60 528.97 397.94
  Q 524.39 404.17 522.79 407.58
  C 516.18 421.65 518.87 436.68 522.37 451.81
  Q 524.19 459.73 522.57 467.07
  A 8.50 8.41 66.5 0 1 521.66 469.41
  C 517.67 476.27 511.33 486.21 519.76 492.81
  C 524.10 496.21 529.89 498.88 535.39 501.31
  C 541.33 503.94 541.85 506.85 537.53 511.26
  C 531.81 517.11 527.51 521.60 524.57 528.78
  C 521.96 535.14 526.62 539.03 531.88 541.33
  Q 536.95 543.56 547.99 546.71
  C 559.00 549.86 552.93 561.87 550.54 568.51
  C 548.54 574.07 549.65 579.62 551.59 585.64
  Q 555.46 597.59 564.75 605.77
  C 571.83 612.00 580.45 619.13 588.35 627.25
  Q 595.69 634.80 602.51 639.74
  Q 605.26 641.73 609.49 643.00
  C 622.21 646.83 632.71 642.72 647.42 637.67
  C 656.95 634.40 665.85 632.85 673.35 640.54
  Q 676.32 643.58 680.60 654.68
  Q 691.67 683.41 704.26 714.76
  C 708.35 724.94 713.57 732.44 721.33 744.14
  Q 729.24 756.06 720.01 765.58
  C 711.20 774.67 704.29 781.30 701.98 792.97
  Q 701.00 797.90 698.97 811.70
  C 698.08 817.74 693.88 819.84 687.83 819.49
  Q 677.59 818.89 669.00 816.37
  Q 662.29 814.40 651.83 808.20
  Q 613.99 785.75 582.53 757.56
  Q 576.68 752.32 566.82 742.63
  C 560.67 736.59 552.07 728.69 546.00 722.03
  C 523.66 697.46 501.78 668.93 488.96 638.89
  C 469.90 594.24 465.17 543.38 471.96 495.68
  C 475.52 470.65 484.05 445.62 493.06 422.83
  Q 500.99 402.78 514.89 388.66
  C 519.06 384.41 521.68 382.73 527.27 383.41
  Q 529.64 383.69 530.22 384.25
  A 2.38 2.36 9.7 0 1 530.79 385.05
  Z"
/>
<path fill="#c99a32" d="
  M 584.47 548.60
  C 581.81 547.03 583.55 541.22 584.50 538.99
  C 587.21 532.61 588.99 528.70 590.89 523.32
  C 592.20 519.58 590.58 516.55 587.15 515.30
  Q 581.28 513.15 577.50 511.36
  Q 571.93 508.72 573.14 502.42
  Q 573.49 500.58 576.48 488.51
  C 578.26 481.35 571.62 475.16 566.58 470.64
  Q 562.28 466.79 560.42 461.56
  Q 546.71 422.92 545.19 418.55
  Q 543.04 412.37 546.20 406.14
  A 2.54 2.53 17.2 0 1 548.80 404.77
  Q 554.09 405.47 557.53 409.73
  Q 575.26 431.67 589.97 451.03
  C 601.52 466.21 610.12 477.79 617.65 495.15
  Q 626.26 515.00 637.72 537.82
  Q 647.01 556.34 650.20 565.16
  Q 656.40 582.31 659.78 596.86
  Q 662.13 606.96 653.01 611.73
  Q 651.07 612.74 646.30 613.80
  Q 635.46 616.20 625.04 618.26
  Q 621.09 619.04 618.51 615.11
  Q 617.11 612.97 616.38 607.61
  C 615.05 597.78 615.37 589.98 615.48 579.20
  C 615.63 564.52 612.56 555.11 597.36 552.12
  C 594.19 551.49 587.87 550.61 584.47 548.60
  Z"
/>
<path fill="#c99a32" d="
  M 1082.11 460.82
  C 1079.72 455.27 1079.85 449.14 1085.98 446.48
  C 1092.80 443.52 1100.50 444.08 1108.09 445.06
  C 1109.61 445.26 1111.49 444.99 1112.76 444.73
  Q 1121.31 443.04 1133.37 440.39
  C 1144.67 437.91 1155.99 435.65 1165.61 440.84
  C 1172.61 444.61 1175.88 461.98 1177.29 470.01
  C 1178.59 477.42 1177.97 483.62 1171.61 488.39
  Q 1166.31 492.36 1158.97 491.46
  Q 1149.81 490.34 1141.01 490.22
  Q 1132.26 490.11 1119.00 493.38
  C 1105.94 496.60 1095.60 497.23 1090.51 482.72
  Q 1086.05 469.99 1082.11 460.82
  Z"
/>
<path fill="#c99a32" d="
  M 1102.11 525.07
  C 1098.60 517.89 1099.76 510.78 1108.39 508.52
  Q 1110.59 507.94 1115.81 509.14
  Q 1130.60 512.53 1139.75 512.53
  Q 1169.21 512.53 1176.00 512.73
  Q 1182.83 512.93 1188.96 515.55
  Q 1195.31 518.26 1196.39 525.35
  Q 1197.96 535.73 1195.63 547.18
  C 1193.43 558.01 1182.04 580.83 1167.45 570.57
  Q 1143.58 553.79 1119.39 538.87
  Q 1115.94 536.74 1106.75 529.85
  Q 1103.11 527.12 1102.11 525.07
  Z"
/>
<path fill="#c99a32" d="
  M 1200.03 946.54
  Q 1199.91 946.44 1199.23 946.34
  Q 1191.91 945.34 1181.25 946.47
  Q 1159.17 948.82 1135.52 953.03
  Q 1127.99 954.37 1124.30 957.07
  C 1117.25 962.21 1112.45 967.25 1104.86 964.00
  C 1088.26 956.90 1084.45 938.56 1089.62 922.38
  C 1092.11 914.60 1097.99 911.06 1105.40 908.41
  C 1117.66 904.03 1138.13 896.51 1149.70 891.56
  Q 1161.85 886.36 1173.85 878.60
  C 1184.60 871.64 1190.16 865.50 1202.13 854.39
  C 1205.60 851.17 1207.94 845.56 1205.69 841.11
  C 1203.56 836.87 1198.99 835.76 1194.49 835.21
  C 1171.84 832.46 1153.79 851.44 1137.58 864.30
  Q 1129.66 870.58 1120.82 872.57
  Q 1113.52 874.21 1109.41 874.95
  Q 1101.89 876.31 1098.30 878.30
  C 1091.19 882.26 1087.94 889.62 1084.68 896.85
  C 1081.51 903.86 1075.76 909.30 1067.52 907.98
  Q 1062.78 907.22 1056.25 902.13
  Q 1046.21 894.31 1037.67 885.38
  C 1031.56 879.00 1031.07 867.94 1035.31 860.78
  C 1039.68 853.38 1047.48 853.91 1053.95 852.19
  Q 1066.95 848.74 1077.66 840.90
  C 1081.14 838.35 1085.06 834.54 1080.18 830.54
  C 1077.61 828.43 1074.60 827.98 1070.78 827.27
  C 1063.58 825.93 1057.19 826.06 1049.91 828.02
  C 1044.98 829.34 1042.64 830.15 1038.31 830.74
  C 1033.82 831.35 1014.24 832.38 1012.18 827.89
  Q 1009.25 821.54 1007.43 811.51
  C 1005.93 803.24 1009.70 797.57 1014.87 789.33
  C 1026.56 770.72 1038.11 751.70 1057.70 740.45
  C 1076.42 729.70 1097.19 724.26 1121.66 717.14
  Q 1129.46 714.87 1132.49 715.63
  Q 1137.99 717.02 1141.10 722.96
  Q 1144.54 729.56 1146.84 738.74
  C 1148.41 745.02 1147.14 751.02 1142.24 754.53
  Q 1120.06 770.38 1101.78 785.53
  Q 1096.94 789.54 1092.17 794.41
  C 1085.87 800.84 1085.68 808.37 1094.96 812.03
  C 1103.56 815.43 1110.61 813.89 1118.28 809.79
  Q 1138.72 798.87 1152.77 781.26
  Q 1157.90 774.83 1163.88 765.64
  C 1170.51 755.45 1184.88 753.39 1194.12 761.14
  Q 1196.93 763.50 1200.58 770.53
  Q 1203.84 776.84 1211.24 789.47
  Q 1219.11 802.89 1213.15 817.87
  Q 1213.08 818.04 1213.08 818.41
  A 1.11 1.11 0.0 0 0 1214.12 819.52
  Q 1216.89 819.70 1219.44 819.62
  C 1233.66 819.19 1239.20 832.98 1240.58 844.74
  Q 1242.63 862.30 1246.16 882.07
  C 1246.97 886.60 1249.65 900.63 1253.89 902.80
  Q 1256.80 904.28 1259.79 902.07
  Q 1264.41 898.66 1263.51 893.30
  A 3.28 3.26 -64.2 0 0 1263.16 892.28
  Q 1262.61 891.26 1259.84 885.94
  Q 1248.95 864.94 1260.75 844.74
  A 2.91 2.89 -62.1 0 1 1264.50 843.57
  Q 1265.54 844.06 1266.44 845.62
  Q 1272.37 855.79 1278.77 865.55
  C 1283.91 873.39 1283.24 883.54 1282.37 894.18
  C 1281.61 903.44 1281.50 914.83 1281.95 922.49
  C 1282.64 934.03 1285.38 942.62 1289.42 957.33
  C 1292.00 966.72 1288.29 972.37 1278.76 973.28
  C 1269.08 974.21 1260.64 973.77 1251.96 979.18
  Q 1238.58 987.52 1224.54 997.28
  C 1219.32 1000.91 1213.98 1003.32 1207.82 1001.67
  Q 1187.73 996.28 1179.77 995.38
  Q 1172.76 994.58 1169.20 1000.70
  Q 1166.11 1006.02 1164.22 1009.13
  A 6.43 5.93 85.4 0 1 1163.31 1010.29
  C 1156.66 1016.97 1147.55 1022.73 1138.37 1018.43
  C 1125.49 1012.40 1115.95 991.40 1129.33 980.50
  C 1137.59 973.77 1149.10 967.72 1159.96 967.35
  C 1171.55 966.95 1181.08 967.75 1188.59 959.07
  C 1190.39 956.99 1192.79 953.93 1195.56 952.22
  Q 1196.64 951.56 1199.93 949.22
  A 1.70 1.69 47.2 0 0 1200.03 946.54
  Z"
/>
<path fill="#c99a32" d="
  M 714.72 829.67
  Q 714.82 826.28 718.56 816.80
  Q 723.52 804.23 728.72 791.72
  C 732.27 783.18 742.95 763.61 754.35 765.70
  Q 756.64 766.12 760.67 768.56
  C 774.58 777.01 788.22 787.60 799.54 795.74
  C 803.33 798.46 809.58 800.12 812.99 802.33
  Q 821.29 807.72 822.81 817.81
  Q 823.52 822.58 821.07 832.68
  Q 819.45 839.33 814.56 862.27
  Q 813.61 866.72 811.12 871.41
  C 805.33 882.31 794.84 881.57 785.18 876.62
  Q 769.10 868.38 723.72 842.53
  Q 716.42 838.37 714.88 831.33
  A 6.98 6.96 -50.6 0 1 714.72 829.67
  Z"
/>
<path fill="#c99a32" d="
  M 832.14 896.38
  Q 830.48 892.84 831.13 889.18
  Q 835.61 863.98 842.40 823.77
  Q 843.06 819.84 846.81 817.62
  C 849.71 815.90 853.72 817.78 856.48 819.25
  Q 879.03 831.23 899.74 846.02
  C 909.04 852.66 913.16 864.25 914.12 875.23
  Q 914.27 876.92 912.72 879.47
  Q 910.08 883.84 904.67 893.11
  C 899.34 902.27 895.93 908.36 885.49 906.74
  Q 869.80 904.31 859.06 902.47
  C 852.54 901.35 843.66 901.20 836.84 899.40
  C 834.98 898.91 833.03 898.29 832.14 896.38
  Z"
/>
<path fill="#c99a32" d="
  M 1185.91 1075.13
  C 1184.30 1078.92 1184.74 1083.01 1188.00 1085.53
  C 1200.69 1095.31 1214.24 1103.49 1230.24 1106.58
  Q 1239.26 1108.33 1247.25 1104.75
  Q 1266.79 1096.00 1285.47 1089.20
  C 1297.62 1084.77 1302.48 1090.35 1305.98 1101.04
  C 1307.13 1104.56 1308.33 1108.50 1306.58 1111.41
  C 1303.90 1115.86 1299.35 1117.31 1293.45 1119.96
  C 1284.47 1123.99 1275.90 1129.58 1267.96 1135.47
  C 1250.19 1148.67 1235.60 1160.89 1214.60 1142.65
  C 1211.73 1140.16 1208.80 1136.95 1205.43 1134.52
  Q 1203.40 1133.06 1188.94 1121.97
  C 1175.65 1111.78 1163.92 1102.44 1167.07 1083.69
  C 1167.81 1079.29 1168.68 1074.18 1167.97 1068.03
  C 1167.52 1064.11 1164.55 1058.89 1163.49 1054.89
  Q 1160.60 1043.94 1165.96 1033.97
  C 1171.16 1024.29 1183.22 1021.34 1193.51 1023.04
  Q 1210.50 1025.84 1212.50 1026.13
  C 1231.88 1028.92 1244.69 1019.90 1259.62 1008.76
  C 1269.82 1001.14 1280.75 996.88 1293.61 998.52
  Q 1302.47 999.64 1304.01 1009.31
  Q 1308.95 1040.37 1309.57 1043.98
  Q 1310.79 1051.04 1308.85 1057.36
  C 1305.63 1067.84 1293.18 1066.71 1284.94 1064.54
  Q 1279.50 1063.11 1277.15 1063.42
  C 1269.81 1064.40 1262.83 1068.58 1256.78 1072.57
  Q 1249.70 1077.25 1247.16 1078.16
  C 1238.16 1081.36 1227.97 1081.44 1220.26 1076.50
  C 1213.68 1072.28 1206.43 1066.80 1199.03 1065.33
  C 1192.03 1063.94 1188.35 1069.37 1185.91 1075.13
  Z"
/>
<path fill="#c99a32" d="
  M 1082.65 1183.33
  C 1079.73 1182.62 1077.48 1179.59 1075.75 1177.46
  Q 1068.24 1168.21 1071.13 1155.20
  C 1076.55 1130.74 1090.59 1112.34 1115.74 1105.98
  Q 1128.28 1102.81 1141.19 1104.39
  C 1149.85 1105.46 1150.00 1111.58 1148.22 1118.26
  C 1146.10 1126.21 1139.42 1126.65 1133.28 1130.08
  C 1123.77 1135.38 1116.92 1143.72 1110.77 1152.77
  Q 1103.25 1163.84 1097.55 1173.01
  C 1094.92 1177.24 1088.14 1184.66 1082.65 1183.33
  Z"
/>
<path fill="#c99a32" d="
  M 1346.27 1222.30
  C 1340.93 1222.54 1336.43 1210.87 1335.65 1207.33
  Q 1332.85 1194.61 1328.33 1185.21
  Q 1325.16 1178.61 1318.06 1167.04
  Q 1313.36 1159.38 1312.98 1156.47
  C 1311.67 1146.31 1321.57 1138.01 1330.33 1134.82
  C 1332.30 1134.10 1333.26 1134.13 1335.16 1135.03
  Q 1336.54 1135.68 1343.73 1140.07
  C 1350.75 1144.36 1355.37 1150.93 1360.27 1157.56
  Q 1368.55 1168.75 1372.73 1182.04
  C 1374.58 1187.95 1375.47 1192.44 1372.59 1198.16
  Q 1371.66 1200.01 1367.29 1203.81
  Q 1359.66 1210.45 1350.07 1220.55
  Q 1348.51 1222.20 1346.27 1222.30
  Z"
/>
<path fill="#c99a32" d="
  M 1153.45 1141.04
  C 1161.36 1139.67 1165.16 1146.91 1162.59 1153.62
  Q 1159.37 1162.01 1154.91 1173.90
  Q 1149.36 1188.75 1148.01 1194.51
  Q 1145.62 1204.73 1145.68 1209.03
  Q 1145.77 1215.61 1144.67 1220.94
  C 1142.03 1233.68 1131.29 1234.11 1122.49 1226.98
  C 1117.37 1222.82 1114.69 1214.09 1114.14 1207.56
  Q 1113.31 1197.60 1117.20 1187.67
  C 1118.71 1183.80 1120.29 1181.37 1123.36 1178.04
  Q 1136.98 1163.31 1146.77 1146.07
  Q 1147.35 1145.04 1149.69 1142.96
  Q 1151.46 1141.38 1153.45 1141.04
  Z"
/>
<path fill="#c99a32" d="
  M 1288.34 1163.07
  Q 1291.07 1163.76 1293.54 1166.50
  Q 1294.24 1167.28 1294.84 1171.66
  Q 1296.07 1180.66 1301.12 1191.88
  Q 1308.15 1207.49 1310.04 1211.46
  C 1313.30 1218.35 1318.10 1224.44 1321.15 1231.34
  Q 1323.84 1237.43 1322.12 1243.08
  Q 1317.53 1258.11 1301.98 1260.45
  Q 1294.91 1261.51 1291.45 1257.07
  Q 1289.46 1254.51 1288.18 1246.05
  Q 1284.41 1221.11 1280.82 1195.95
  Q 1279.38 1185.92 1278.77 1177.75
  C 1278.35 1172.03 1279.47 1164.84 1286.07 1163.09
  A 4.60 4.57 44.3 0 1 1288.34 1163.07
  Z"
/>
<path fill="#c99a32" d="
  M 1179.78 1175.03
  C 1183.50 1169.49 1192.38 1169.35 1197.45 1172.08
  C 1203.81 1175.51 1212.03 1180.36 1219.73 1182.38
  C 1227.56 1184.44 1236.10 1184.07 1245.02 1184.69
  C 1255.53 1185.43 1259.92 1197.08 1260.48 1206.27
  Q 1261.78 1227.78 1262.40 1237.72
  Q 1263.28 1252.02 1255.35 1262.78
  C 1243.32 1279.08 1216.46 1274.13 1199.20 1270.82
  Q 1191.14 1269.28 1185.22 1263.26
  C 1178.97 1256.90 1172.83 1246.96 1172.89 1237.71
  Q 1172.97 1222.19 1173.52 1206.25
  Q 1173.95 1193.68 1176.55 1182.78
  Q 1177.62 1178.26 1179.78 1175.03
  Z"
/>
<path fill="#c99a32" d="
  M 435.41 1391.47
  Q 435.68 1391.30 436.26 1391.30
  Q 462.03 1391.10 472.99 1391.15
  C 477.64 1391.17 479.91 1393.92 482.25 1398.02
  Q 495.98 1422.15 512.24 1449.07
  C 513.25 1450.74 513.06 1452.95 512.26 1454.94
  C 501.25 1482.17 478.62 1503.34 448.77 1506.52
  Q 409.01 1510.76 381.71 1483.33
  Q 364.20 1465.73 360.49 1440.02
  C 356.06 1409.33 368.85 1380.71 394.13 1363.17
  C 412.05 1350.74 434.34 1347.24 455.76 1351.63
  C 458.39 1352.17 460.58 1352.45 462.64 1353.46
  A 2.72 2.72 0.0 0 1 463.95 1356.92
  L 456.64 1374.87
  A 2.27 2.26 17.8 0 1 454.02 1376.21
  Q 448.73 1374.95 445.50 1374.51
  C 426.80 1371.94 407.74 1379.73 395.90 1394.22
  C 375.56 1419.11 381.88 1455.81 407.85 1473.83
  C 424.85 1485.62 449.42 1486.36 466.85 1474.92
  C 472.31 1471.34 489.40 1458.54 484.66 1450.60
  Q 474.52 1433.61 466.03 1418.98
  C 464.23 1415.87 461.73 1415.27 458.06 1415.30
  Q 444.28 1415.42 436.30 1415.24
  A 1.44 1.43 0.6 0 1 434.90 1413.82
  Q 434.84 1401.82 434.90 1392.35
  Q 434.90 1391.78 435.41 1391.47
  Z"
/>
<path fill="#c99a32" d="
  M 1111.00 1354.88
  A 1.17 1.17 0.0 0 1 1112.17 1353.71
  Q 1137.72 1353.55 1160.22 1354.05
  Q 1169.38 1354.25 1177.82 1358.36
  C 1195.74 1367.07 1200.05 1384.30 1196.03 1403.00
  Q 1195.58 1405.12 1197.58 1407.67
  Q 1202.72 1414.23 1205.91 1419.08
  Q 1210.86 1426.61 1212.61 1437.24
  C 1216.41 1460.19 1208.02 1481.30 1188.42 1494.37
  C 1177.48 1501.67 1165.80 1503.12 1152.67 1503.35
  Q 1132.86 1503.69 1112.78 1503.38
  A 1.81 1.81 0.0 0 1 1111.00 1501.57
  L 1111.00 1354.88
  Z
  M 1162.05 1411.59
  C 1165.29 1407.03 1169.54 1402.47 1172.11 1396.83
  Q 1174.69 1391.20 1171.46 1385.51
  C 1167.84 1379.13 1161.02 1378.16 1154.25 1378.17
  Q 1147.52 1378.18 1136.31 1378.48
  A 1.03 1.03 0.0 0 0 1135.31 1379.51
  L 1135.31 1477.77
  A 1.23 1.23 0.0 0 0 1136.50 1479.00
  Q 1147.46 1479.31 1157.04 1479.19
  Q 1171.34 1479.02 1180.03 1469.75
  C 1192.83 1456.10 1193.26 1433.93 1176.77 1422.78
  Q 1169.28 1417.72 1162.12 1412.07
  A 0.35 0.34 -54.0 0 1 1162.05 1411.59
  Z"
/>
<path fill="#c99a32" d="
  M 659.54 1441.91
  A 64.13 64.13 0.0 0 1 595.41 1506.04
  A 64.13 64.13 0.0 0 1 531.28 1441.91
  A 64.13 64.13 0.0 0 1 595.41 1377.78
  A 64.13 64.13 0.0 0 1 659.54 1441.91
  Z
  M 640.89 1442.01
  A 45.45 45.45 0.0 0 0 595.44 1396.56
  A 45.45 45.45 0.0 0 0 549.99 1442.01
  A 45.45 45.45 0.0 0 0 595.44 1487.46
  A 45.45 45.45 0.0 0 0 640.89 1442.01
  Z"
/>
<path fill="#c99a32" d="
  M 760.88 1385.13
  A 3.48 3.48 0.0 0 1 764.35 1381.64
  L 770.38 1381.62
  A 60.67 60.67 0.0 0 1 831.26 1442.08
  L 831.26 1442.54
  A 60.67 60.67 0.0 0 1 770.80 1503.42
  L 764.77 1503.44
  A 3.48 3.48 0.0 0 1 761.28 1499.97
  L 760.88 1385.13
  Z
  M 779.80 1442.62
  Q 779.78 1480.16 779.82 1481.55
  A 1.37 1.37 0.0 0 0 781.33 1482.87
  Q 783.37 1482.64 785.85 1481.63
  C 801.50 1475.24 812.15 1459.87 812.17 1442.64
  C 812.18 1425.41 801.54 1410.03 785.90 1403.62
  Q 783.42 1402.61 781.38 1402.38
  A 1.37 1.37 0.0 0 0 779.86 1403.69
  Q 779.82 1405.09 779.80 1442.62
  Z"
/>
<path fill="#c99a32" d="
  M 908.51 1431.33
  Q 907.17 1431.39 897.45 1431.37
  Q 892.83 1431.37 887.22 1433.95
  C 871.48 1441.19 867.26 1461.42 877.92 1474.49
  C 885.17 1483.38 895.08 1484.56 906.63 1484.71
  Q 909.36 1484.74 909.39 1487.99
  Q 909.44 1493.81 909.36 1499.62
  C 909.33 1502.17 908.13 1503.13 905.62 1503.30
  C 880.60 1505.00 858.57 1491.16 853.90 1465.85
  Q 851.43 1452.50 857.46 1438.65
  C 861.26 1429.92 867.85 1423.93 875.47 1418.26
  A 1.73 1.73 0.0 0 0 876.08 1416.32
  C 873.24 1407.63 873.29 1399.31 878.85 1391.90
  C 885.91 1382.49 896.10 1380.72 907.19 1381.99
  Q 909.14 1382.21 909.26 1384.51
  Q 909.55 1390.22 909.30 1398.93
  A 1.78 1.78 0.0 0 1 907.25 1400.65
  C 903.31 1400.06 892.29 1400.11 892.83 1406.49
  Q 893.27 1411.74 899.54 1412.17
  Q 905.29 1412.56 908.15 1412.63
  A 1.17 1.17 0.0 0 1 909.30 1413.80
  L 909.30 1430.50
  A 0.83 0.83 0.0 0 1 908.51 1431.33
  Z"
/>
<path fill="#c99a32" d="
  M 998.84 1399.33
  A 0.77 0.76 16.8 0 0 1000.02 1398.70
  Q 1000.13 1391.32 1000.10 1384.36
  Q 1000.09 1381.94 1003.00 1381.92
  Q 1010.29 1381.90 1015.77 1381.95
  Q 1018.52 1381.97 1018.53 1384.49
  Q 1018.62 1404.65 1018.55 1499.25
  Q 1018.55 1500.84 1018.39 1501.86
  A 1.56 1.55 4.5 0 1 1016.85 1503.16
  L 1001.37 1503.16
  A 1.28 1.28 0.0 0 1 1000.09 1501.87
  Q 1000.33 1469.25 999.77 1443.81
  C 999.31 1422.58 982.33 1405.36 961.91 1401.13
  A 0.93 0.92 -84.2 0 0 960.80 1402.04
  L 960.80 1501.06
  A 1.83 1.83 0.0 0 1 959.03 1502.89
  Q 952.12 1503.12 945.27 1502.85
  Q 943.04 1502.76 942.98 1500.26
  Q 942.25 1469.43 942.60 1389.26
  Q 942.62 1385.08 943.63 1382.29
  A 0.94 0.93 -79.4 0 1 944.52 1381.67
  C 961.30 1381.86 978.01 1383.60 991.69 1394.17
  Q 996.01 1397.50 998.84 1399.33
  Z"
/>
<path fill="#c99a32" d="
  M 1295.69 1482.35
  A 1.63 1.63 0.0 0 0 1294.06 1480.82
  L 1254.83 1480.82
  A 1.65 1.65 0.0 0 0 1253.18 1482.47
  L 1253.18 1501.42
  A 1.58 1.58 0.0 0 1 1251.60 1503.00
  L 1236.25 1503.05
  A 1.84 1.84 0.0 0 1 1234.48 1501.70
  Q 1234.36 1501.26 1234.38 1500.00
  Q 1234.53 1492.56 1234.30 1455.62
  Q 1234.21 1441.01 1235.78 1434.00
  Q 1239.83 1415.89 1252.80 1402.56
  Q 1277.20 1377.46 1312.50 1382.59
  A 1.92 1.92 0.0 0 1 1314.14 1384.48
  Q 1314.16 1433.98 1314.15 1500.06
  C 1314.15 1502.13 1312.92 1503.00 1310.89 1503.00
  Q 1303.64 1503.01 1299.43 1503.01
  Q 1295.68 1503.01 1295.77 1499.04
  Q 1296.03 1488.39 1295.69 1482.35
  Z
  M 1293.78 1401.24
  Q 1291.10 1401.51 1288.14 1402.40
  C 1262.18 1410.18 1249.60 1434.14 1253.77 1460.23
  A 0.96 0.96 0.0 0 0 1254.66 1461.04
  Q 1274.64 1462.41 1294.54 1460.95
  A 1.25 1.24 -2.0 0 0 1295.70 1459.71
  L 1295.70 1402.98
  A 1.75 1.75 0.0 0 0 1293.78 1401.24
  Z"
/>
<path fill="#c99a32" d="
  M 1382.51 1436.37
  Q 1383.04 1436.37 1383.28 1435.77
  Q 1393.03 1411.47 1402.82 1385.59
  C 1403.93 1382.66 1404.99 1381.79 1408.13 1381.71
  Q 1415.81 1381.49 1422.68 1381.92
  A 1.49 1.48 -77.4 0 1 1423.97 1383.96
  Q 1408.99 1421.59 1394.65 1458.90
  Q 1392.12 1465.48 1392.10 1472.76
  Q 1392.05 1494.33 1392.07 1501.55
  A 1.30 1.29 88.7 0 1 1390.84 1502.85
  Q 1386.53 1503.05 1382.50 1503.05
  Q 1378.47 1503.05 1374.16 1502.84
  A 1.30 1.29 -88.7 0 1 1372.93 1501.55
  Q 1372.95 1494.33 1372.91 1472.76
  Q 1372.89 1465.48 1370.37 1458.90
  Q 1356.04 1421.58 1341.07 1383.95
  A 1.49 1.48 77.4 0 1 1342.36 1381.91
  Q 1349.23 1381.48 1356.91 1381.70
  C 1360.05 1381.78 1361.11 1382.65 1362.22 1385.58
  Q 1372.00 1411.47 1381.75 1435.77
  Q 1381.99 1436.37 1382.51 1436.37
  Z"
/>
<path fill="#c99a32" d="
  M 697.48 1382.00
  A 1.47 1.47 0.0 0 1 698.95 1383.47
  L 698.95 1482.33
  A 1.96 1.96 0.0 0 0 700.91 1484.29
  L 726.54 1484.29
  A 2.29 2.28 -1.2 0 1 728.83 1486.48
  Q 729.08 1492.62 728.87 1500.60
  Q 728.79 1503.28 726.00 1503.30
  Q 704.70 1503.42 683.05 1503.26
  Q 680.43 1503.24 680.44 1500.54
  Q 680.44 1446.51 680.43 1389.25
  Q 680.43 1386.32 680.68 1383.47
  A 1.61 1.61 0.0 0 1 682.28 1382.00
  L 697.48 1382.00
  Z"
/>
<path fill="#c99a32" d="
  M 1323.00 1574.55
  A 0.47 0.47 0.0 0 0 1322.10 1574.37
  L 1315.02 1591.56
  A 2.25 2.25 0.0 0 1 1311.95 1592.72
  L 1311.86 1592.68
  A 2.24 2.24 0.0 0 1 1310.85 1589.61
  Q 1318.42 1575.26 1322.36 1559.53
  A 0.53 0.53 0.0 0 0 1321.86 1558.87
  L 1314.17 1558.80
  A 2.60 2.59 88.1 0 1 1311.61 1556.40
  L 1311.60 1556.20
  A 2.02 2.02 0.0 0 1 1313.61 1553.91
  L 1321.80 1553.93
  A 0.92 0.92 0.0 0 0 1322.72 1553.05
  L 1323.37 1537.81
  A 2.12 2.11 -0.0 0 1 1325.40 1535.79
  L 1325.56 1535.78
  A 1.78 1.78 0.0 0 1 1327.50 1537.54
  L 1327.55 1552.99
  A 0.83 0.83 0.0 0 0 1328.38 1553.82
  L 1334.13 1553.82
  A 2.12 2.10 18.4 0 0 1335.81 1552.99
  Q 1338.24 1549.76 1340.99 1549.96
  A 1.05 1.05 0.0 0 0 1342.12 1548.96
  L 1342.37 1543.15
  A 1.37 1.37 0.0 0 1 1343.74 1541.84
  L 1356.66 1541.84
  A 0.83 0.83 0.0 0 0 1357.43 1541.32
  L 1358.91 1537.69
  A 1.94 1.93 11.1 0 1 1360.70 1536.49
  L 1362.32 1536.49
  A 0.96 0.96 0.0 0 1 1363.21 1537.81
  L 1362.16 1540.41
  A 1.03 1.03 0.0 0 0 1363.12 1541.83
  Q 1372.88 1541.81 1376.47 1541.93
  Q 1379.36 1542.03 1379.22 1545.25
  Q 1379.06 1549.14 1379.11 1549.63
  A 0.65 0.65 0.0 0 0 1379.69 1550.23
  L 1383.27 1550.61
  A 1.53 1.53 0.0 0 1 1383.88 1553.46
  Q 1382.58 1554.22 1380.39 1554.43
  A 1.28 1.28 0.0 0 0 1379.23 1555.70
  L 1379.23 1561.14
  A 1.44 1.44 0.0 0 1 1377.79 1562.58
  L 1364.69 1562.55
  A 2.30 2.30 0.0 0 0 1362.40 1564.62
  L 1362.38 1564.79
  A 1.82 1.81 4.1 0 0 1364.18 1566.86
  L 1379.37 1566.86
  A 1.30 1.29 -0.0 0 1 1380.67 1568.15
  L 1380.67 1578.37
  A 1.30 1.30 0.0 0 1 1379.37 1579.67
  L 1360.78 1579.67
  A 4.72 4.70 18.3 0 0 1357.01 1581.55
  L 1356.08 1582.78
  A 1.35 1.35 0.0 0 0 1357.16 1584.94
  L 1382.78 1584.94
  A 2.00 2.00 0.0 0 1 1384.75 1586.62
  L 1384.83 1587.09
  A 1.49 1.49 0.0 0 1 1383.36 1588.83
  L 1376.43 1588.83
  A 2.55 2.54 8.3 0 0 1373.99 1590.65
  Q 1372.63 1595.19 1368.97 1598.79
  A 0.99 0.99 0.0 0 0 1369.29 1600.41
  L 1381.08 1605.26
  A 2.33 2.33 0.0 0 1 1382.43 1608.09
  L 1382.42 1608.11
  A 1.90 1.90 0.0 0 1 1379.88 1609.36
  L 1366.03 1603.76
  A 4.06 4.03 44.8 0 0 1362.96 1603.76
  Q 1351.48 1608.47 1337.83 1609.37
  A 2.06 2.06 0.0 0 1 1335.67 1607.66
  L 1335.60 1607.25
  A 1.35 1.34 80.7 0 1 1336.70 1605.71
  L 1355.80 1602.54
  A 1.06 1.06 0.0 0 0 1356.08 1600.53
  C 1352.67 1598.90 1347.68 1598.88 1343.64 1599.09
  A 1.58 1.57 20.1 0 1 1342.41 1596.44
  Q 1345.28 1593.40 1347.05 1589.59
  A 0.56 0.56 0.0 0 0 1346.54 1588.79
  L 1337.39 1588.82
  A 1.98 1.98 0.0 0 1 1335.40 1586.87
  L 1335.40 1586.73
  A 1.80 1.78 88.2 0 1 1337.17 1584.83
  L 1348.51 1584.78
  A 3.88 3.88 0.0 0 0 1352.15 1582.21
  L 1352.23 1581.97
  A 1.73 1.72 9.6 0 0 1350.61 1579.69
  Q 1343.78 1579.64 1342.74 1579.70
  Q 1340.47 1579.83 1340.44 1577.55
  Q 1340.37 1571.62 1340.47 1568.10
  A 1.50 1.49 0.6 0 1 1341.97 1566.64
  L 1356.45 1566.64
  A 1.94 1.93 1.2 0 0 1358.39 1564.79
  L 1358.42 1564.22
  A 1.55 1.54 1.2 0 0 1356.87 1562.61
  L 1343.70 1562.61
  A 1.47 1.46 89.2 0 1 1342.24 1561.18
  Q 1342.22 1560.28 1342.11 1555.41
  A 1.96 1.95 -88.0 0 0 1340.34 1553.50
  C 1338.30 1553.30 1337.66 1555.80 1336.60 1558.03
  A 1.22 1.21 -77.3 0 1 1335.50 1558.73
  L 1328.34 1558.73
  A 0.68 0.67 1.8 0 0 1327.66 1559.36
  Q 1327.30 1564.84 1329.14 1567.36
  Q 1332.93 1572.53 1336.35 1578.23
  A 2.79 2.78 -40.0 0 1 1336.06 1581.49
  L 1336.02 1581.53
  A 1.51 1.51 0.0 0 1 1333.57 1581.28
  Q 1331.44 1577.51 1329.23 1573.56
  Q 1328.89 1572.96 1328.28 1572.57
  A 0.50 0.49 16.7 0 0 1327.51 1572.98
  L 1327.51 1607.84
  A 1.94 1.94 0.0 0 1 1325.48 1609.78
  L 1325.02 1609.76
  A 2.12 2.11 -88.7 0 1 1323.00 1607.64
  L 1323.00 1574.55
  Z
  M 1358.28 1549.30
  L 1358.24 1546.66
  A 0.94 0.94 0.0 0 0 1357.29 1545.74
  L 1349.30 1545.83
  A 3.49 2.00 -0.7 0 0 1345.84 1547.88
  L 1345.84 1548.40
  A 3.49 2.00 -0.7 0 0 1349.36 1550.35
  L 1357.35 1550.26
  A 0.94 0.94 0.0 0 0 1358.28 1549.30
  Z
  M 1375.0662 1547.8150
  A 1.88 1.88 0.0 0 0 1373.2361 1545.8865
  L 1364.3991 1545.6551
  A 1.88 1.88 0.0 0 0 1362.4705 1547.4852
  L 1362.4538 1548.1250
  A 1.88 1.88 0.0 0 0 1364.2839 1550.0535
  L 1373.1209 1550.2849
  A 1.88 1.88 0.0 0 0 1375.0495 1548.4548
  L 1375.0662 1547.8150
  Z
  M 1358.4408 1556.0040
  A 1.96 1.96 0.0 0 0 1356.5433 1553.9834
  L 1348.1275 1553.7189
  A 1.96 1.96 0.0 0 0 1346.1069 1555.6164
  L 1346.0792 1556.4960
  A 1.96 1.96 0.0 0 0 1347.9767 1558.5166
  L 1356.3925 1558.7811
  A 1.96 1.96 0.0 0 0 1358.4131 1556.8836
  L 1358.4408 1556.0040
  Z
  M 1374.7849 1555.5933
  A 1.81 1.81 0.0 0 0 1372.9876 1553.7707
  L 1364.2078 1553.7094
  A 1.81 1.81 0.0 0 0 1362.3852 1555.5067
  L 1362.3751 1556.9467
  A 1.81 1.81 0.0 0 0 1364.1724 1558.7693
  L 1372.9522 1558.8306
  A 1.81 1.81 0.0 0 0 1374.7748 1557.0333
  L 1374.7849 1555.5933
  Z
  M 1358.2133 1572.8064
  A 2.14 2.14 0.0 0 0 1356.0845 1570.6552
  L 1346.4646 1570.6049
  A 2.14 2.14 0.0 0 0 1344.3134 1572.7336
  L 1344.3067 1574.0136
  A 2.14 2.14 0.0 0 0 1346.4355 1576.1648
  L 1356.0554 1576.2151
  A 2.14 2.14 0.0 0 0 1358.2066 1574.0864
  L 1358.2133 1572.8064
  Z
  M 1376.4352 1572.6061
  A 1.88 1.88 0.0 0 0 1374.5916 1570.6903
  L 1364.1936 1570.4907
  A 1.88 1.88 0.0 0 0 1362.2778 1572.3342
  L 1362.2448 1574.0539
  A 1.88 1.88 0.0 0 0 1364.0884 1575.9697
  L 1374.4864 1576.1693
  A 1.88 1.88 0.0 0 0 1376.4022 1574.3258
  L 1376.4352 1572.6061
  Z
  M 1369.05 1591.61
  A 1.72 1.72 0.0 0 0 1367.68 1588.86
  L 1353.68 1588.86
  A 1.72 1.72 0.0 0 0 1352.30 1589.55
  L 1349.82 1592.85
  A 1.72 1.72 0.0 0 0 1350.82 1595.56
  L 1362.82 1598.24
  A 1.72 1.72 0.0 0 0 1364.57 1597.59
  L 1369.05 1591.61
  Z"
/>
<path fill="#c99a32" d="
  M 844.34 1593.57
  A 1.01 1.00 -54.7 0 0 844.55 1594.83
  C 851.06 1600.53 858.27 1602.09 867.02 1602.38
  Q 884.71 1602.95 896.09 1602.65
  A 1.84 1.84 0.0 0 1 897.95 1604.84
  L 897.92 1605.00
  A 2.85 2.85 0.0 0 1 895.21 1607.31
  Q 880.10 1607.76 865.25 1607.36
  C 855.57 1607.10 849.09 1603.94 841.26 1598.75
  A 0.92 0.92 0.0 0 0 840.00 1598.98
  Q 837.19 1602.81 831.32 1607.53
  A 4.18 4.17 -55.4 0 1 827.44 1608.25
  L 827.33 1608.22
  A 1.60 1.60 0.0 0 1 826.66 1605.56
  L 837.24 1594.92
  A 1.09 1.08 -37.0 0 0 837.43 1593.63
  Q 832.18 1583.95 830.03 1573.22
  A 3.29 3.29 0.0 0 0 828.01 1570.80
  Q 825.75 1569.92 826.03 1568.28
  A 2.36 2.33 4.5 0 1 828.33 1566.35
  Q 829.23 1566.34 837.24 1566.53
  A 1.21 1.21 0.0 0 0 838.48 1565.32
  L 838.48 1555.09
  A 1.74 1.74 0.0 0 0 836.77 1553.35
  L 826.95 1553.19
  A 1.84 1.83 6.2 0 1 825.18 1551.00
  L 825.21 1550.82
  A 2.51 2.49 -85.9 0 1 827.68 1548.67
  L 837.61 1548.64
  A 0.86 0.85 -0.3 0 0 838.46 1547.79
  L 838.46 1538.01
  A 1.98 1.97 -90.0 0 1 840.43 1536.03
  L 842.19 1536.03
  A 1.46 1.46 0.0 0 1 843.65 1537.56
  L 843.22 1547.44
  A 1.00 1.00 0.0 0 0 844.22 1548.49
  L 855.29 1548.52
  A 2.02 2.01 3.6 0 1 857.29 1550.79
  L 857.28 1550.97
  A 2.56 2.55 -87.7 0 1 854.74 1553.32
  L 843.92 1553.30
  A 0.61 0.60 -0.0 0 0 843.31 1553.90
  L 843.31 1566.10
  A 0.81 0.80 84.4 0 0 844.27 1566.89
  Q 849.31 1565.89 853.44 1566.70
  A 1.48 1.48 0.0 0 1 854.58 1568.53
  Q 851.09 1581.92 844.34 1593.57
  Z
  M 834.51 1571.04
  A 0.82 0.82 0.0 0 0 833.73 1572.10
  Q 837.89 1585.40 838.90 1587.86
  Q 839.42 1589.14 840.08 1589.84
  A 1.30 1.29 -55.7 0 0 842.21 1589.43
  L 849.47 1571.60
  A 0.41 0.41 0.0 0 0 849.09 1571.04
  L 834.51 1571.04
  Z"
/>
<path fill="#c99a32" d="
  M 1155.91 1564.98
  A 1.22 1.22 0.0 0 0 1154.74 1566.53
  C 1159.32 1582.52 1169.03 1596.32 1184.30 1603.64
  A 2.20 2.20 0.0 0 1 1184.84 1607.24
  L 1184.61 1607.45
  A 4.43 4.43 0.0 0 1 1179.51 1608.10
  C 1164.28 1599.93 1156.36 1587.91 1151.09 1571.68
  A 0.51 0.51 0.0 0 0 1150.12 1571.70
  C 1145.61 1587.79 1136.04 1600.25 1120.91 1608.10
  A 4.36 4.36 0.0 0 1 1116.29 1607.72
  L 1115.41 1607.05
  A 1.50 1.50 0.0 0 1 1115.76 1604.45
  C 1127.48 1599.83 1137.23 1589.90 1141.67 1578.43
  Q 1143.67 1573.27 1145.48 1566.05
  A 0.89 0.89 0.0 0 0 1144.61 1564.95
  L 1117.08 1564.95
  A 2.06 2.05 -88.8 0 1 1115.03 1562.80
  L 1115.09 1561.56
  A 2.16 2.15 -88.7 0 1 1117.24 1559.49
  L 1145.17 1559.49
  A 1.48 1.48 0.0 0 0 1146.65 1558.07
  L 1147.55 1537.47
  A 0.91 0.89 86.8 0 1 1148.29 1536.63
  L 1152.97 1535.87
  A 1.02 1.01 81.5 0 1 1154.14 1536.74
  C 1154.26 1537.62 1153.19 1540.45 1153.17 1542.18
  Q 1153.08 1550.73 1152.52 1558.86
  A 0.55 0.54 1.9 0 0 1153.07 1559.44
  L 1183.63 1559.44
  A 2.15 2.15 0.0 0 1 1185.78 1561.68
  L 1185.74 1562.43
  A 2.66 2.66 0.0 0 1 1183.08 1564.98
  L 1155.91 1564.98
  Z"
/>
<path fill="#c99a32" d="
  M 764.88 1565.80
  A 0.46 0.46 0.0 0 0 764.05 1565.52
  L 762.23 1567.93
  A 1.93 1.92 -73.8 0 1 760.85 1568.69
  Q 759.52 1568.79 758.29 1568.40
  A 0.84 0.84 0.0 0 0 757.19 1569.20
  L 757.19 1585.42
  A 1.61 1.61 0.0 0 1 755.58 1587.03
  L 732.24 1587.03
  A 0.87 0.87 0.0 0 1 731.37 1586.16
  L 731.37 1565.36
  A 2.43 2.43 0.0 0 0 729.04 1562.93
  L 727.14 1562.84
  A 1.12 1.12 0.0 0 1 726.27 1561.07
  Q 732.93 1551.66 735.96 1540.99
  C 736.97 1537.41 738.18 1535.60 742.00 1536.27
  A 0.88 0.88 0.0 0 1 742.61 1537.58
  L 740.18 1541.79
  A 1.09 1.09 0.0 0 0 741.11 1543.42
  C 746.65 1543.47 751.55 1543.18 752.89 1543.82
  A 1.60 1.60 0.0 0 1 753.59 1546.05
  L 748.30 1555.46
  A 0.75 0.75 0.0 0 0 748.96 1556.58
  L 755.34 1556.58
  A 1.99 1.98 0.0 0 1 757.33 1558.56
  L 757.33 1564.60
  A 0.90 0.90 0.0 0 0 758.81 1565.29
  Q 759.21 1564.97 759.56 1564.32
  Q 765.95 1552.59 770.19 1538.52
  A 3.26 3.25 9.6 0 1 773.45 1536.21
  L 774.62 1536.26
  A 1.68 1.68 0.0 0 1 776.00 1538.77
  L 772.01 1545.66
  A 1.19 1.19 0.0 0 0 773.04 1547.45
  L 797.13 1547.45
  A 1.03 1.03 0.0 0 1 798.16 1548.53
  L 796.49 1586.85
  A 3.80 3.79 77.9 0 1 794.41 1590.07
  Q 789.20 1592.70 783.08 1590.67
  Q 781.85 1590.26 781.84 1589.08
  A 1.88 1.86 -0.4 0 1 783.72 1587.19
  Q 788.47 1587.19 789.93 1587.10
  A 2.09 2.09 0.0 0 0 791.88 1585.10
  L 793.29 1552.88
  A 0.68 0.68 0.0 0 0 792.61 1552.17
  L 773.07 1552.17
  A 3.77 3.77 0.0 0 0 769.81 1554.05
  L 767.11 1558.73
  A 1.27 1.26 -74.9 0 0 768.20 1560.63
  L 784.92 1560.63
  A 1.10 1.10 0.0 0 1 786.02 1561.75
  Q 785.87 1570.90 786.01 1580.26
  Q 786.04 1582.92 783.78 1582.81
  Q 777.20 1582.48 770.45 1582.32
  A 0.88 0.88 0.0 0 0 769.55 1583.20
  Q 769.59 1590.28 769.55 1601.06
  Q 769.54 1604.01 772.23 1603.84
  Q 773.20 1603.78 792.22 1603.80
  A 2.68 2.66 2.1 0 0 794.89 1601.33
  L 795.32 1595.66
  A 1.71 1.71 0.0 0 1 797.42 1594.13
  L 797.46 1594.14
  A 2.79 2.79 0.0 0 1 799.52 1596.75
  C 799.63 1600.18 798.72 1607.41 794.51 1607.81
  Q 793.74 1607.88 788.99 1607.90
  Q 777.18 1607.94 769.53 1607.82
  C 765.32 1607.76 765.00 1600.50 765.00 1597.52
  Q 764.99 1577.05 764.88 1565.80
  Z
  M 739.67 1547.60
  A 1.77 1.77 0.0 0 0 738.03 1548.70
  L 735.27 1555.49
  A 0.98 0.97 -78.9 0 0 736.17 1556.84
  L 741.31 1556.84
  A 2.88 2.88 0.0 0 0 743.81 1555.39
  L 747.63 1548.78
  A 0.79 0.79 0.0 0 0 746.95 1547.60
  L 739.67 1547.60
  Z
  M 753.2603 1562.3540
  A 1.76 1.76 0.0 0 0 751.4880 1560.6064
  L 747.5481 1560.6339
  A 1.76 1.76 0.0 0 0 745.8005 1562.4061
  L 745.8397 1568.0260
  A 1.76 1.76 0.0 0 0 747.6120 1569.7736
  L 751.5519 1569.7461
  A 1.76 1.76 0.0 0 0 753.2995 1567.9739
  L 753.2603 1562.3540
  Z
  M 742.2019 1561.7047
  A 0.93 0.93 0.0 0 0 741.2622 1560.7845
  L 736.3425 1560.8360
  A 0.93 0.93 0.0 0 0 735.4223 1561.7757
  L 735.4981 1569.0153
  A 0.93 0.93 0.0 0 0 736.4378 1569.9355
  L 741.3575 1569.8840
  A 0.93 0.93 0.0 0 0 742.2777 1568.9443
  L 742.2019 1561.7047
  Z
  M 781.4532 1566.5650
  A 1.78 1.78 0.0 0 0 779.6424 1564.8163
  L 771.0837 1564.9657
  A 1.78 1.78 0.0 0 0 769.3351 1566.7765
  L 769.5068 1576.6150
  A 1.78 1.78 0.0 0 0 771.3176 1578.3637
  L 779.8763 1578.2143
  A 1.78 1.78 0.0 0 0 781.6249 1576.4035
  L 781.4532 1566.5650
  Z
  M 742.1693 1574.7876
  A 1.07 1.07 0.0 0 0 741.1049 1573.7121
  L 736.5250 1573.6881
  A 1.07 1.07 0.0 0 0 735.4494 1574.7525
  L 735.4107 1582.1524
  A 1.07 1.07 0.0 0 0 736.4751 1583.2279
  L 741.0550 1583.2519
  A 1.07 1.07 0.0 0 0 742.1306 1582.1875
  L 742.1693 1574.7876
  Z
  M 752.52 1573.78
  L 746.48 1573.90
  A 0.74 0.74 0.0 0 0 745.75 1574.65
  L 745.87 1580.68
  A 3.12 2.79 -1.1 0 0 749.04 1583.41
  L 750.32 1583.39
  A 3.12 2.79 -1.1 0 0 753.39 1580.54
  L 753.27 1574.51
  A 0.74 0.74 0.0 0 0 752.52 1573.78
  Z"
/>
<path fill="#c99a32" d="
  M 1079.73 1553.13
  Q 1080.18 1553.20 1083.01 1552.78
  Q 1085.94 1552.36 1088.50 1553.35
  A 1.90 1.88 35.6 0 1 1089.05 1556.56
  Q 1088.72 1556.84 1087.78 1556.86
  Q 1079.83 1557.05 1076.76 1556.94
  Q 1074.29 1556.84 1074.22 1558.98
  Q 1074.08 1563.25 1074.24 1566.69
  A 1.76 1.75 88.6 0 0 1075.99 1568.37
  L 1086.36 1568.37
  A 2.11 2.11 0.0 0 1 1088.47 1570.48
  L 1088.47 1571.18
  A 1.41 1.41 0.0 0 1 1087.06 1572.59
  L 1074.95 1572.59
  A 0.95 0.95 0.0 0 0 1074.00 1573.54
  L 1074.00 1583.53
  A 1.15 1.14 0.3 0 0 1075.14 1584.67
  L 1089.96 1584.73
  A 1.91 1.90 89.4 0 1 1091.86 1586.60
  L 1091.89 1586.91
  A 1.75 1.75 0.0 0 1 1090.15 1588.81
  L 1074.96 1588.81
  A 0.93 0.92 -0.0 0 0 1074.03 1589.73
  L 1074.03 1608.00
  A 2.02 2.01 -90.0 0 1 1072.02 1610.02
  L 1071.52 1610.02
  A 2.03 2.03 0.0 0 1 1069.49 1607.99
  L 1069.49 1589.20
  A 0.51 0.51 0.0 0 0 1068.96 1588.69
  Q 1060.85 1588.88 1055.77 1588.82
  C 1053.95 1588.81 1052.96 1586.92 1050.75 1586.92
  Q 1026.91 1586.91 1024.27 1586.93
  A 0.89 0.88 -0.0 0 1 1023.38 1586.05
  L 1023.38 1565.88
  A 2.51 2.51 0.0 0 0 1021.42 1563.43
  L 1019.22 1562.94
  A 1.15 1.14 -66.1 0 1 1018.54 1561.16
  Q 1025.85 1550.84 1029.64 1538.45
  A 3.21 3.20 8.4 0 1 1032.69 1536.19
  L 1033.59 1536.19
  A 1.47 1.46 -79.0 0 1 1034.95 1538.21
  L 1033.15 1542.65
  A 1.10 1.09 -84.1 0 0 1034.36 1544.14
  Q 1040.13 1543.09 1045.25 1543.70
  Q 1046.63 1543.87 1047.03 1544.08
  A 1.30 1.30 0.0 0 1 1047.59 1545.89
  L 1041.99 1555.84
  A 0.65 0.65 0.0 0 0 1042.56 1556.81
  L 1050.24 1556.81
  A 1.92 1.92 0.0 0 1 1052.16 1558.73
  L 1052.16 1584.20
  A 0.60 0.59 -0.0 0 0 1052.76 1584.79
  L 1068.13 1584.79
  A 1.34 1.33 -0.0 0 0 1069.47 1583.46
  L 1069.47 1574.07
  A 1.39 1.39 0.0 0 0 1068.09 1572.68
  L 1058.63 1572.63
  A 2.20 2.19 0.5 0 1 1056.45 1570.42
  L 1056.45 1570.39
  A 2.10 2.10 0.0 0 1 1058.54 1568.37
  L 1067.94 1568.32
  A 1.59 1.59 0.0 0 0 1069.52 1566.73
  L 1069.52 1558.77
  A 1.78 1.77 -89.8 0 0 1067.76 1556.99
  L 1056.63 1556.91
  A 2.18 2.18 0.0 0 1 1054.46 1554.84
  L 1054.45 1554.72
  A 1.79 1.78 -2.8 0 1 1056.21 1552.78
  L 1062.37 1552.72
  A 0.89 0.89 0.0 0 0 1063.18 1551.49
  L 1058.24 1539.64
  A 1.76 1.76 0.0 0 1 1059.26 1537.30
  L 1059.33 1537.28
  A 2.22 2.21 64.5 0 1 1061.98 1538.22
  C 1063.64 1540.99 1066.34 1546.36 1066.60 1549.68
  C 1066.67 1550.60 1066.25 1551.32 1066.17 1552.19
  A 0.48 0.48 0.0 0 0 1066.65 1552.72
  L 1074.04 1552.72
  A 1.89 1.88 -78.8 0 0 1075.78 1551.55
  L 1080.89 1538.99
  A 3.52 3.51 11.0 0 1 1084.15 1536.80
  L 1085.14 1536.80
  A 1.65 1.65 0.0 0 1 1086.57 1539.28
  L 1079.19 1552.03
  A 0.74 0.73 19.2 0 0 1079.73 1553.13
  Z
  M 1036.33 1557.02
  A 0.81 0.81 0.0 0 0 1037.03 1556.62
  L 1041.52 1548.86
  A 0.81 0.81 0.0 0 0 1040.82 1547.64
  L 1032.10 1547.64
  A 0.81 0.81 0.0 0 0 1031.40 1548.04
  L 1026.91 1555.80
  A 0.81 0.81 0.0 0 0 1027.61 1557.02
  L 1036.33 1557.02
  Z
  M 1035.5833 1561.5600
  A 0.84 0.84 0.0 0 0 1034.7117 1560.7529
  L 1027.9167 1561.0139
  A 0.84 0.84 0.0 0 0 1027.1096 1561.8855
  L 1027.3967 1569.3600
  A 0.84 0.84 0.0 0 0 1028.2683 1570.1671
  L 1035.0633 1569.9061
  A 0.84 0.84 0.0 0 0 1035.8704 1569.0345
  L 1035.5833 1561.5600
  Z
  M 1048.2364 1562.7282
  A 1.77 1.77 0.0 0 0 1046.4976 1560.9276
  L 1041.1184 1560.8337
  A 1.77 1.77 0.0 0 0 1039.3178 1562.5726
  L 1039.2236 1567.9718
  A 1.77 1.77 0.0 0 0 1040.9624 1569.7724
  L 1046.3416 1569.8663
  A 1.77 1.77 0.0 0 0 1048.1422 1568.1274
  L 1048.2364 1562.7282
  Z
  M 1035.6162 1574.6306
  A 0.89 0.89 0.0 0 0 1034.7139 1573.7531
  L 1027.9346 1573.8478
  A 0.89 0.89 0.0 0 0 1027.0571 1574.7501
  L 1027.1638 1582.3894
  A 0.89 0.89 0.0 0 0 1028.0661 1583.2669
  L 1034.8454 1583.1722
  A 0.89 0.89 0.0 0 0 1035.7229 1582.2699
  L 1035.6162 1574.6306
  Z
  M 1048.1795 1574.9936
  A 1.35 1.35 0.0 0 0 1046.7787 1573.6964
  L 1040.1636 1573.9505
  A 1.35 1.35 0.0 0 0 1038.8664 1575.3513
  L 1039.1205 1581.9664
  A 1.35 1.35 0.0 0 0 1040.5213 1583.2636
  L 1047.1364 1583.0095
  A 1.35 1.35 0.0 0 0 1048.4336 1581.6087
  L 1048.1795 1574.9936
  Z"
/>
<path fill="#c99a32" d="
  M 550.22 1545.66
  A 0.81 0.81 0.0 0 0 550.99 1546.72
  L 587.36 1546.64
  A 1.68 1.68 0.0 0 1 589.04 1548.32
  L 589.04 1549.09
  A 2.37 2.37 0.0 0 1 586.68 1551.46
  Q 559.53 1551.45 550.95 1551.51
  C 549.10 1551.52 548.04 1552.37 547.11 1554.02
  Q 543.27 1560.84 540.89 1564.81
  A 2.10 2.09 33.8 0 1 537.84 1565.41
  L 537.66 1565.27
  A 2.37 2.37 0.0 0 1 537.14 1562.03
  Q 544.27 1551.79 547.55 1539.42
  Q 548.34 1536.45 552.18 1536.84
  A 1.78 1.53 7.8 0 1 553.80 1538.67
  Q 553.66 1539.36 553.02 1540.37
  Q 550.81 1543.81 550.22 1545.66
  Z"
/>
<path fill="#c99a32" d="
  M 685.90 1558.90
  Q 682.99 1560.51 682.97 1564.31
  Q 682.94 1567.48 683.65 1574.96
  A 1.46 1.45 5.9 0 1 681.77 1576.48
  L 681.53 1576.40
  A 2.80 2.79 -81.1 0 1 679.58 1573.72
  L 679.64 1561.39
  A 1.69 1.69 0.0 0 0 677.62 1559.72
  Q 677.09 1559.83 673.77 1560.71
  Q 672.98 1560.92 672.36 1560.46
  A 1.86 1.79 -41.8 0 1 672.59 1557.43
  Q 676.40 1555.13 676.74 1554.93
  A 2.24 2.24 0.0 0 0 677.32 1551.37
  L 674.47 1548.45
  A 2.20 2.18 -22.7 0 0 672.83 1547.79
  Q 672.12 1547.78 657.60 1547.82
  C 654.58 1547.83 652.95 1547.23 650.45 1546.11
  A 0.67 0.66 -63.0 0 0 649.60 1546.39
  L 644.62 1555.16
  A 1.42 1.41 -71.4 0 0 645.66 1557.26
  L 645.69 1557.26
  A 2.59 2.59 0.0 0 0 648.37 1555.69
  L 649.33 1553.39
  A 1.32 1.31 -38.4 0 1 651.84 1553.68
  L 652.36 1556.82
  A 1.37 1.37 0.0 0 0 654.03 1557.93
  Q 661.44 1556.22 668.70 1557.54
  Q 669.72 1557.73 669.78 1558.82
  A 1.15 1.14 87.8 0 1 668.66 1560.04
  Q 652.29 1560.37 652.03 1560.40
  A 2.72 2.63 -40.0 0 1 651.03 1560.33
  L 648.71 1559.69
  A 1.66 1.66 0.0 0 0 646.61 1561.29
  L 646.61 1574.43
  A 1.38 1.37 87.0 0 1 645.38 1575.80
  L 645.00 1575.84
  A 1.44 1.43 -2.9 0 1 643.42 1574.42
  L 643.40 1560.90
  A 1.18 1.18 0.0 0 0 642.02 1559.74
  C 639.74 1560.11 637.38 1560.85 636.10 1559.73
  A 1.62 1.56 -34.5 0 1 636.64 1557.06
  Q 640.71 1555.50 640.89 1555.43
  A 1.87 1.76 6.9 0 0 641.62 1554.89
  Q 642.92 1553.26 642.05 1551.53
  A 1.11 1.07 -85.8 0 0 641.71 1551.12
  L 637.48 1547.94
  A 1.51 1.51 0.0 0 1 637.37 1545.62
  Q 640.76 1542.48 642.62 1538.54
  A 2.45 2.44 18.8 0 1 645.36 1537.20
  L 646.06 1537.36
  A 1.09 1.09 0.0 0 1 646.69 1539.08
  L 641.89 1545.47
  A 2.06 2.05 37.0 0 0 642.30 1548.35
  L 642.61 1548.59
  A 1.75 1.75 0.0 0 0 645.17 1548.06
  L 647.59 1543.87
  A 1.39 1.38 -58.3 0 1 649.55 1543.40
  Q 650.99 1544.35 652.75 1544.42
  Q 655.70 1544.52 673.24 1544.79
  A 2.22 2.21 18.6 0 0 675.03 1543.91
  L 679.95 1537.37
  A 1.32 1.31 -56.7 0 1 681.66 1537.01
  L 682.09 1537.26
  A 1.28 1.28 0.0 0 1 682.48 1539.14
  L 677.96 1545.16
  A 2.31 2.31 0.0 0 0 678.41 1548.39
  L 678.78 1548.66
  A 1.83 1.83 0.0 0 0 681.42 1548.18
  C 682.67 1546.20 684.19 1543.75 685.66 1542.99
  A 1.40 1.40 0.0 0 1 687.54 1544.89
  Q 685.86 1548.06 680.79 1553.99
  C 679.46 1555.54 680.17 1557.18 682.18 1557.21
  C 685.05 1557.25 684.38 1554.32 685.94 1552.79
  A 1.17 1.17 0.0 0 1 687.74 1552.99
  Q 690.06 1556.63 690.83 1558.18
  Q 691.44 1559.43 691.24 1560.15
  A 1.77 1.42 28.0 0 1 688.65 1560.64
  Q 688.50 1560.53 686.90 1559.03
  A 0.87 0.85 51.8 0 0 685.90 1558.90
  Z"
/>
<path fill="#c99a32" d="
  M 955.03 1545.67
  A 0.82 0.81 8.8 0 0 955.81 1546.73
  L 992.39 1546.73
  A 1.69 1.69 0.0 0 1 994.08 1548.42
  L 994.08 1549.20
  A 2.38 2.38 0.0 0 1 991.70 1551.58
  Q 964.39 1551.51 955.76 1551.55
  C 953.90 1551.56 952.83 1552.41 951.89 1554.07
  Q 948.01 1560.92 945.61 1564.91
  A 2.11 2.11 0.0 0 1 942.54 1565.51
  L 942.36 1565.37
  A 2.38 2.38 0.0 0 1 941.84 1562.10
  Q 949.04 1551.82 952.36 1539.38
  Q 953.16 1536.40 957.02 1536.80
  A 1.80 1.54 7.9 0 1 958.65 1538.64
  Q 958.51 1539.34 957.86 1540.35
  Q 955.63 1543.81 955.03 1545.67
  Z"
/>
<path fill="#c99a32" d="
  M 446.47 1543.67
  A 0.57 0.56 -47.5 0 0 445.61 1543.71
  Q 438.03 1553.70 428.29 1561.58
  A 0.70 0.69 49.2 0 0 428.22 1562.61
  Q 428.50 1562.90 429.07 1562.90
  Q 437.07 1562.82 462.98 1562.90
  A 3.51 3.50 -11.1 0 1 466.23 1565.08
  L 466.24 1565.11
  A 1.67 1.67 0.0 0 1 464.67 1567.41
  L 449.35 1567.23
  A 0.71 0.70 -89.6 0 0 448.64 1567.94
  L 448.64 1577.98
  A 0.81 0.81 0.0 0 0 449.45 1578.79
  L 474.72 1578.81
  A 2.39 2.39 0.0 0 1 477.10 1581.02
  L 477.12 1581.24
  A 1.95 1.94 86.6 0 1 475.19 1583.42
  L 449.14 1583.42
  A 0.49 0.49 0.0 0 0 448.65 1583.91
  L 448.65 1602.37
  A 1.47 1.46 90.0 0 0 450.11 1603.84
  L 478.68 1603.83
  A 1.98 1.98 0.0 0 1 480.65 1606.02
  L 480.65 1606.34
  A 2.08 2.08 0.0 0 1 478.57 1608.39
  L 414.53 1608.38
  A 2.35 2.34 88.5 0 1 412.19 1606.16
  L 412.18 1606.03
  A 2.08 2.08 0.0 0 1 414.26 1603.81
  L 441.94 1603.80
  A 1.38 1.37 -90.0 0 0 443.31 1602.42
  L 443.31 1584.82
  A 1.45 1.45 0.0 0 0 441.86 1583.37
  L 417.84 1583.35
  A 2.22 2.22 0.0 0 1 415.62 1581.10
  L 415.62 1581.04
  A 2.24 2.24 0.0 0 1 417.86 1578.81
  L 442.49 1578.80
  A 0.91 0.90 -90.0 0 0 443.39 1577.89
  L 443.39 1568.99
  A 1.45 1.45 0.0 0 0 441.94 1567.54
  L 428.42 1567.54
  A 1.57 1.56 -26.2 0 1 427.47 1567.22
  L 425.14 1565.47
  A 1.01 0.99 -41.5 0 0 424.03 1565.41
  L 414.16 1571.36
  A 2.15 2.15 0.0 0 1 411.10 1570.42
  L 411.06 1570.33
  A 2.47 2.45 61.9 0 1 412.01 1567.18
  Q 429.30 1556.72 442.52 1539.27
  C 445.71 1535.05 448.55 1537.98 451.16 1541.25
  Q 463.57 1556.78 481.50 1566.42
  A 1.55 1.54 32.5 0 1 482.01 1568.71
  L 480.91 1570.17
  A 2.06 2.06 0.0 0 1 478.23 1570.71
  Q 462.96 1561.82 452.28 1549.97
  Q 451.14 1548.70 446.47 1543.67
  Z"
/>
<rect fill="#c99a32" x="-8.60" y="-2.49" transform="translate(933.43,1543.37) rotate(33.0)" width="17.20" height="4.98" rx="2.01"/>
<path fill="#c99a32" d="
  M 1277.28 1557.19
  A 0.89 0.89 0.0 0 1 1278.17 1558.08
  Q 1278.24 1581.22 1278.18 1606.98
  Q 1278.18 1608.34 1277.21 1608.96
  A 2.06 1.99 59.3 0 1 1274.35 1608.18
  Q 1272.77 1605.26 1269.28 1605.27
  Q 1240.72 1605.36 1237.41 1605.28
  A 1.11 1.11 0.0 0 0 1236.44 1605.82
  Q 1235.96 1606.60 1235.79 1607.65
  A 2.23 2.05 -70.1 0 1 1232.61 1609.30
  Q 1231.72 1608.73 1231.69 1607.49
  Q 1231.53 1599.61 1231.63 1558.75
  A 1.38 1.38 0.0 0 1 1233.01 1557.37
  L 1243.86 1557.37
  A 1.07 1.07 0.0 0 0 1244.93 1556.30
  L 1244.93 1546.65
  A 1.47 1.47 0.0 0 0 1243.46 1545.18
  L 1230.94 1545.18
  A 3.36 3.33 -67.2 0 0 1228.59 1546.15
  L 1226.63 1548.11
  A 1.43 1.43 0.0 0 1 1224.87 1548.32
  Q 1216.73 1543.36 1213.71 1541.31
  Q 1212.27 1540.33 1212.64 1538.93
  A 2.04 2.04 0.0 0 1 1215.24 1537.53
  Q 1220.56 1539.24 1225.39 1543.12
  A 1.12 1.11 -47.8 0 0 1226.87 1543.04
  L 1228.92 1540.98
  A 2.83 2.79 22.2 0 1 1230.91 1540.16
  L 1279.64 1540.16
  A 2.27 2.27 0.0 0 1 1281.91 1542.43
  L 1281.91 1542.80
  A 2.22 2.22 0.0 0 1 1279.69 1545.02
  L 1263.79 1545.02
  A 1.31 1.31 0.0 0 0 1262.48 1546.33
  L 1262.48 1555.72
  A 1.48 1.47 -0.0 0 0 1263.96 1557.19
  L 1277.28 1557.19
  Z
  M 1257.9178 1546.0859
  A 1.22 1.22 0.0 0 0 1256.6683 1544.8961
  L 1250.4702 1545.0476
  A 1.22 1.22 0.0 0 0 1249.2804 1546.2970
  L 1249.5222 1556.1941
  A 1.22 1.22 0.0 0 0 1250.7717 1557.3839
  L 1256.9698 1557.2324
  A 1.22 1.22 0.0 0 0 1258.1596 1555.9830
  L 1257.9178 1546.0859
  Z
  M 1272.50 1576.47
  Q 1267.53 1579.87 1262.05 1578.77
  C 1257.27 1577.81 1257.84 1574.44 1257.83 1569.66
  Q 1257.81 1564.40 1257.87 1563.86
  A 1.73 1.72 3.7 0 0 1256.19 1561.96
  L 1251.18 1561.87
  A 1.89 1.89 0.0 0 0 1249.26 1563.86
  Q 1249.84 1574.66 1241.16 1582.00
  A 1.51 1.50 -44.5 0 1 1239.20 1581.99
  L 1238.89 1581.72
  A 1.64 1.63 44.0 0 1 1238.84 1579.30
  Q 1245.68 1572.81 1245.67 1563.13
  A 1.32 1.32 0.0 0 0 1244.35 1561.82
  L 1237.35 1561.82
  A 1.22 1.22 0.0 0 0 1236.13 1563.04
  L 1236.13 1584.53
  A 1.66 1.66 0.0 0 0 1237.79 1586.19
  L 1272.03 1586.19
  A 1.34 1.34 0.0 0 0 1273.37 1584.85
  L 1273.37 1576.93
  A 0.56 0.56 0.0 0 0 1272.50 1576.47
  Z
  M 1263.23 1562.05
  A 1.05 1.05 0.0 0 0 1262.36 1563.07
  Q 1262.28 1569.62 1262.39 1572.93
  C 1262.50 1576.21 1266.58 1575.40 1268.02 1573.58
  Q 1269.50 1571.73 1271.76 1570.03
  A 2.47 2.44 83.6 0 0 1272.54 1569.04
  Q 1273.36 1567.13 1273.26 1563.87
  A 1.88 1.87 -85.7 0 0 1271.72 1562.07
  Q 1267.59 1561.30 1263.23 1562.05
  Z
  M 1273.3323 1591.2876
  A 0.77 0.77 0.0 0 0 1272.5609 1590.5189
  L 1236.9610 1590.5811
  A 0.77 0.77 0.0 0 0 1236.1923 1591.3524
  L 1236.2077 1600.1924
  A 0.77 0.77 0.0 0 0 1236.9791 1600.9611
  L 1272.5790 1600.8989
  A 0.77 0.77 0.0 0 0 1273.3477 1600.1276
  L 1273.3323 1591.2876
  Z"
/>
<rect fill="#c99a32" x="-8.54" y="-2.38" transform="translate(528.51,1543.42) rotate(32.2)" width="17.08" height="4.76" rx="2.32"/>
<rect fill="#c99a32" x="-7.51" y="-2.20" transform="translate(627.50,1543.56) rotate(38.2)" width="15.02" height="4.40" rx="2.01"/>
<rect fill="#c99a32" x="-7.43" y="-1.38" transform="translate(662.29,1539.74) rotate(1.2)" width="14.86" height="2.76" rx="1.34"/>
<path fill="#c99a32" d="
  M 867.40 1573.38
  L 857.26 1584.96
  A 3.78 3.77 -63.5 0 1 853.63 1586.18
  L 853.59 1586.18
  A 1.47 1.47 0.0 0 1 852.77 1583.82
  Q 860.17 1574.65 866.96 1566.72
  C 868.22 1565.24 868.72 1564.02 868.67 1561.93
  Q 868.58 1558.42 868.68 1555.26
  Q 868.71 1554.58 868.48 1554.18
  A 0.65 0.65 0.0 0 0 867.39 1554.11
  Q 863.54 1559.40 858.64 1563.07
  A 2.69 2.68 -42.8 0 1 855.27 1562.95
  L 855.02 1562.73
  A 1.38 1.38 0.0 0 1 855.16 1560.54
  Q 860.25 1557.13 863.73 1551.94
  A 5.00 4.92 -0.7 0 1 865.05 1550.61
  Q 868.24 1548.40 868.64 1547.92
  Q 869.08 1547.40 869.09 1547.32
  A 1.29 1.29 0.0 0 0 867.87 1545.68
  L 857.09 1545.53
  A 2.14 2.13 -89.2 0 1 854.99 1543.36
  L 854.98 1543.19
  A 2.17 2.16 89.4 0 1 857.14 1540.97
  L 871.34 1540.96
  A 1.59 1.59 0.0 0 1 872.93 1542.55
  L 872.93 1593.30
  A 2.70 2.68 78.0 0 1 871.34 1595.76
  C 868.48 1597.03 859.78 1598.74 858.41 1594.49
  A 1.39 1.39 0.0 0 1 859.73 1592.68
  L 867.15 1592.68
  A 1.53 1.53 0.0 0 0 868.68 1591.15
  L 868.68 1573.86
  A 0.73 0.73 0.0 0 0 867.40 1573.38
  Z"
/>
<path fill="#c99a32" d="
  M 890.48 1572.18
  A 0.44 0.44 0.0 0 0 889.70 1572.14
  Q 884.90 1580.04 878.65 1585.37
  Q 876.86 1586.90 875.68 1585.95
  A 1.37 1.26 -53.2 0 1 875.50 1584.15
  Q 880.59 1577.05 889.71 1565.16
  A 4.70 4.68 -26.4 0 0 890.67 1562.32
  L 890.67 1554.50
  A 0.63 0.63 0.0 0 0 889.59 1554.05
  L 880.74 1562.90
  A 2.86 2.85 -53.7 0 1 877.41 1563.42
  L 877.18 1563.30
  A 1.54 1.54 0.0 0 1 876.90 1560.75
  Q 882.47 1556.08 886.15 1551.31
  A 5.61 5.52 -85.1 0 1 887.84 1549.86
  Q 889.75 1548.83 890.10 1548.61
  Q 891.08 1547.98 891.09 1547.30
  A 1.67 1.55 2.4 0 0 889.51 1545.70
  Q 885.28 1545.48 877.76 1545.57
  A 1.84 1.84 0.0 0 1 875.89 1543.73
  L 875.89 1542.76
  A 1.77 1.77 0.0 0 1 877.66 1540.99
  L 894.47 1540.99
  A 0.75 0.75 0.0 0 1 895.22 1541.74
  Q 895.17 1552.92 895.10 1591.23
  C 895.08 1598.16 885.64 1597.71 881.43 1595.94
  A 1.91 1.90 -63.1 0 1 880.55 1593.21
  Q 880.85 1592.71 882.01 1592.77
  Q 883.01 1592.82 889.32 1592.72
  A 1.29 1.29 0.0 0 0 890.59 1591.42
  Q 890.50 1578.60 890.62 1573.07
  Q 890.63 1572.52 890.48 1572.18
  Z"
/>
<rect fill="#c99a32" x="654.72" y="1551.19" width="15.52" height="2.64" rx="1.28"/>
<path fill="#c99a32" d="
  M 1223.55 1569.27
  A 1.07 1.07 0.0 0 1 1222.09 1569.68
  L 1210.62 1563.24
  A 3.08 1.86 29.3 0 1 1208.85 1560.11
  L 1209.33 1559.26
  A 3.08 1.86 29.3 0 1 1212.92 1559.14
  L 1224.39 1565.58
  A 1.07 1.07 0.0 0 1 1224.80 1567.04
  L 1223.55 1569.27
  Z"
/>
<rect fill="#c99a32" x="-8.49" y="-2.49" transform="translate(929.54,1564.58) rotate(30.9)" width="16.98" height="4.98" rx="2.06"/>
<rect fill="#c99a32" x="-8.39" y="-2.21" transform="translate(524.57,1564.52) rotate(31.2)" width="16.78" height="4.42" rx="1.93"/>
<rect fill="#c99a32" x="-7.52" y="-2.37" transform="translate(625.84,1564.47) rotate(34.7)" width="15.04" height="4.74" rx="1.78"/>
<path fill="#c99a32" d="
  M 582.69 1580.57
  A 0.71 0.71 0.0 0 0 581.98 1581.25
  L 581.51 1592.04
  A 1.14 1.14 0.0 0 0 582.60 1593.23
  L 587.35 1593.43
  A 1.93 1.92 5.5 0 1 589.17 1595.63
  L 589.12 1596.01
  A 2.46 2.45 4.2 0 1 586.69 1598.10
  L 581.46 1598.10
  A 0.88 0.88 0.0 0 0 580.58 1599.00
  Q 580.65 1601.83 579.40 1604.69
  C 576.74 1610.79 569.67 1610.17 564.03 1609.01
  Q 562.36 1608.66 562.19 1607.15
  A 1.89 1.86 -1.8 0 1 564.17 1605.08
  Q 569.96 1605.35 571.15 1605.35
  A 4.30 4.29 15.2 0 0 574.91 1603.20
  L 576.24 1600.91
  A 1.95 1.95 0.0 0 0 574.55 1597.99
  L 547.00 1597.99
  A 1.01 1.01 0.0 0 0 546.06 1598.63
  Q 545.70 1599.50 544.87 1600.87
  A 2.31 1.91 -58.8 0 1 542.07 1601.85
  Q 540.74 1601.06 540.93 1599.74
  Q 542.81 1586.65 543.40 1582.00
  A 1.28 1.28 0.0 0 0 542.13 1580.55
  L 537.50 1580.55
  A 2.35 2.35 0.0 0 1 535.18 1577.86
  L 535.26 1577.34
  A 2.01 2.01 0.0 0 1 537.55 1575.64
  L 542.02 1576.30
  A 1.74 1.74 0.0 0 0 543.99 1574.84
  L 545.98 1561.45
  A 2.66 2.66 0.0 0 1 548.61 1559.17
  L 581.58 1559.17
  A 1.33 1.32 1.2 0 1 582.91 1560.55
  L 582.31 1574.28
  A 1.35 1.35 0.0 0 0 583.46 1575.68
  L 587.90 1576.34
  A 1.95 1.94 -81.6 0 1 589.54 1578.56
  L 589.47 1579.02
  A 1.82 1.82 0.0 0 1 587.67 1580.57
  L 582.69 1580.57
  Z
  M 561.2096 1564.4960
  A 0.58 0.58 0.0 0 0 560.6661 1563.8817
  L 550.2056 1563.2419
  A 0.58 0.58 0.0 0 0 549.5913 1563.7854
  L 548.8904 1575.2440
  A 0.58 0.58 0.0 0 0 549.4339 1575.8583
  L 559.8944 1576.4981
  A 0.58 0.58 0.0 0 0 560.5087 1575.9546
  L 561.2096 1564.4960
  Z
  M 578.3301 1564.6666
  A 0.92 0.92 0.0 0 0 577.4545 1563.7043
  L 566.5466 1563.1899
  A 0.92 0.92 0.0 0 0 565.5843 1564.0655
  L 565.0699 1574.9734
  A 0.92 0.92 0.0 0 0 565.9455 1575.9357
  L 576.8534 1576.4501
  A 0.92 0.92 0.0 0 0 577.8157 1575.5745
  L 578.3301 1564.6666
  Z
  M 560.1099 1581.2402
  A 0.44 0.44 0.0 0 0 559.7009 1580.7713
  L 548.0878 1579.9796
  A 0.44 0.44 0.0 0 0 547.6189 1580.3887
  L 546.7701 1592.8398
  A 0.44 0.44 0.0 0 0 547.1791 1593.3087
  L 558.7922 1594.1004
  A 0.44 0.44 0.0 0 0 559.2611 1593.6913
  L 560.1099 1581.2402
  Z
  M 565.58 1580.32
  A 1.69 1.69 0.0 0 0 563.89 1581.94
  L 563.45 1592.11
  A 1.69 1.69 0.0 0 0 565.14 1593.87
  L 575.30 1593.87
  A 1.69 1.69 0.0 0 0 576.99 1592.25
  L 577.43 1582.08
  A 1.69 1.69 0.0 0 0 575.74 1580.32
  L 565.58 1580.32
  Z"
/>
<path fill="#c99a32" d="
  M 927.50 1608.24
  A 0.82 0.81 -52.8 0 1 926.21 1608.42
  L 924.07 1606.28
  A 1.48 1.48 0.0 0 1 923.80 1604.54
  Q 929.37 1593.89 933.98 1583.46
  Q 935.51 1580.01 938.72 1579.66
  A 0.83 0.82 -82.5 0 0 939.41 1579.12
  C 940.05 1577.37 940.69 1575.90 942.71 1575.83
  Q 945.33 1575.74 947.73 1575.88
  A 1.11 1.10 5.6 0 0 948.89 1574.93
  Q 950.54 1563.13 950.96 1561.53
  C 951.46 1559.65 952.75 1559.15 954.73 1559.16
  Q 964.64 1559.16 986.65 1559.18
  A 1.06 1.05 -88.7 0 1 987.70 1560.29
  L 987.05 1575.32
  A 0.71 0.71 0.0 0 0 987.76 1576.06
  L 992.63 1576.06
  A 1.92 1.92 0.0 0 1 994.55 1578.04
  L 994.54 1578.37
  A 2.22 2.22 0.0 0 1 992.32 1580.52
  L 987.57 1580.52
  A 0.71 0.70 1.3 0 0 986.86 1581.19
  L 986.36 1592.62
  A 0.89 0.89 0.0 0 0 987.21 1593.54
  L 992.80 1593.78
  A 1.68 1.67 -81.8 0 1 994.35 1595.86
  L 994.25 1596.26
  A 2.38 2.38 0.0 0 1 991.83 1598.06
  L 986.48 1597.83
  A 1.02 1.01 4.9 0 0 985.43 1598.71
  C 984.74 1604.14 984.70 1609.09 978.28 1609.32
  Q 974.09 1609.47 969.38 1609.30
  A 2.29 2.28 88.7 0 1 967.18 1607.19
  L 967.16 1606.90
  A 1.69 1.68 -1.5 0 1 968.91 1605.06
  L 975.22 1605.34
  A 5.34 5.34 0.0 0 0 980.07 1602.68
  L 980.84 1601.34
  A 2.17 2.17 0.0 0 0 978.96 1598.09
  L 952.40 1598.09
  A 1.85 1.84 -72.9 0 0 950.87 1598.91
  Q 949.30 1601.23 949.20 1601.38
  A 1.93 1.82 -58.3 0 1 946.84 1602.01
  Q 945.44 1601.30 945.67 1599.74
  Q 947.02 1590.61 948.16 1581.89
  A 1.03 1.02 -82.2 0 0 947.30 1580.75
  L 940.26 1579.71
  A 0.88 0.88 0.0 0 0 939.25 1580.60
  Q 939.31 1583.20 937.28 1588.02
  Q 932.59 1599.16 927.50 1608.24
  Z
  M 965.9583 1564.6489
  A 0.68 0.68 0.0 0 0 965.3136 1563.9354
  L 955.1467 1563.4203
  A 0.68 0.68 0.0 0 0 954.4331 1564.0651
  L 953.8817 1574.9511
  A 0.68 0.68 0.0 0 0 954.5264 1575.6646
  L 964.6933 1576.1797
  A 0.68 0.68 0.0 0 0 965.4069 1575.5349
  L 965.9583 1564.6489
  Z
  M 983.1696 1565.1776
  A 1.50 1.50 0.0 0 0 981.6987 1563.6491
  L 971.5005 1563.4532
  A 1.50 1.50 0.0 0 0 969.9720 1564.9242
  L 969.7904 1574.3824
  A 1.50 1.50 0.0 0 0 971.2613 1575.9109
  L 981.4595 1576.1068
  A 1.50 1.50 0.0 0 0 982.9880 1574.6358
  L 983.1696 1565.1776
  Z
  M 970.58 1580.31
  A 1.56 1.56 0.0 0 0 969.02 1581.80
  L 968.57 1592.12
  A 1.56 1.56 0.0 0 0 970.13 1593.75
  L 980.47 1593.75
  A 1.56 1.56 0.0 0 0 982.03 1592.26
  L 982.48 1581.94
  A 1.56 1.56 0.0 0 0 980.92 1580.31
  L 970.58 1580.31
  Z
  M 964.5645 1582.1017
  A 1.28 1.28 0.0 0 0 963.3185 1580.7887
  L 953.6618 1580.5358
  A 1.28 1.28 0.0 0 0 952.3487 1581.7818
  L 952.0755 1592.2183
  A 1.28 1.28 0.0 0 0 953.3215 1593.5313
  L 962.9782 1593.7842
  A 1.28 1.28 0.0 0 0 964.2913 1592.5382
  L 964.5645 1582.1017
  Z"
/>
<path fill="#c99a32" d="
  M 675.17 1563.66
  L 676.58 1563.87
  A 1.28 1.28 0.0 0 1 677.58 1565.62
  L 674.46 1573.28
  A 1.45 1.44 -74.6 0 1 672.91 1574.17
  L 670.70 1573.84
  A 2.47 2.39 -46.0 0 0 669.80 1573.87
  C 662.68 1575.33 648.15 1576.22 648.93 1564.83
  A 1.71 1.71 0.0 0 1 650.54 1563.25
  L 650.75 1563.24
  A 1.39 1.38 -1.0 0 1 652.21 1564.65
  Q 652.07 1572.56 654.71 1570.85
  A 0.84 0.81 74.3 0 0 655.09 1570.15
  L 655.09 1565.26
  A 1.88 1.88 0.0 0 1 656.97 1563.38
  L 668.11 1563.38
  A 2.01 2.01 0.0 0 1 670.10 1565.68
  L 669.24 1571.47
  A 1.14 1.14 0.0 0 0 671.12 1572.50
  C 672.94 1570.91 673.15 1567.05 673.51 1564.87
  A 1.46 1.46 0.0 0 1 675.17 1563.66
  Z
  M 666.7471 1568.0845
  A 1.95 1.95 0.0 0 0 664.7904 1566.1413
  L 659.8104 1566.1587
  A 1.95 1.95 0.0 0 0 657.8672 1568.1155
  L 657.8729 1569.7355
  A 1.95 1.95 0.0 0 0 659.8296 1571.6787
  L 664.8096 1571.6613
  A 1.95 1.95 0.0 0 0 666.7528 1569.7045
  L 666.7471 1568.0845
  Z"
/>
<rect fill="#c99a32" x="-1.65" y="-5.96" transform="translate(638.01,1569.28) rotate(17.6)" width="3.30" height="11.92" rx="1.56"/>
<rect fill="#c99a32" x="-1.57" y="-5.29" transform="translate(688.58,1568.96) rotate(-14.7)" width="3.14" height="10.58" rx="1.52"/>
<path fill="#c99a32" d="
  M 647.05 1594.94
  Q 682.65 1594.93 684.25 1594.93
  C 687.72 1594.93 687.68 1597.20 686.68 1599.90
  C 685.17 1603.99 683.97 1608.18 679.16 1609.07
  Q 672.60 1610.28 666.63 1608.96
  A 2.19 2.19 0.0 0 1 664.83 1606.83
  L 664.83 1606.75
  A 1.25 1.25 0.0 0 1 666.14 1605.49
  L 675.54 1605.90
  A 6.26 6.26 0.0 0 0 681.43 1602.42
  L 681.72 1601.83
  A 2.47 2.47 0.0 0 0 679.44 1598.36
  Q 658.50 1598.48 649.23 1598.43
  C 646.28 1598.42 644.95 1599.27 642.72 1600.48
  Q 642.07 1600.82 641.63 1600.77
  A 1.58 1.46 -72.6 0 1 640.57 1598.53
  Q 642.87 1593.81 643.48 1588.60
  A 1.93 1.92 3.3 0 1 645.40 1586.90
  L 678.26 1586.89
  A 2.02 2.02 0.0 0 0 680.20 1584.32
  L 680.19 1584.28
  A 3.33 3.33 0.0 0 0 676.98 1581.83
  L 640.41 1581.84
  A 0.81 0.80 6.3 0 1 639.62 1580.86
  L 639.75 1580.25
  A 2.15 2.14 -83.6 0 1 641.84 1578.58
  L 682.36 1578.58
  A 1.58 1.58 0.0 0 1 683.94 1580.16
  L 683.94 1588.89
  A 1.43 1.43 0.0 0 1 682.51 1590.32
  L 648.62 1590.32
  A 2.67 2.65 6.2 0 0 646.02 1592.40
  L 645.80 1593.38
  A 1.28 1.28 0.0 0 0 647.05 1594.94
  Z"
/>
<rect fill="#c99a32" x="-2.45" y="-15.10" transform="translate(1219.15,1593.69) rotate(26.0)" width="4.90" height="30.20" rx="2.04"/>
<path fill="#c99a32" d="
  M 519.27 1607.00
  A 1.06 1.06 0.0 0 1 518.76 1605.59
  L 529.16 1583.59
  A 4.25 2.14 -64.7 0 1 532.91 1580.66
  L 533.24 1580.82
  A 4.25 2.14 -64.7 0 1 533.35 1585.58
  L 522.96 1607.57
  A 1.06 1.06 0.0 0 1 521.55 1608.08
  L 519.27 1607.00
  Z"
/>
<rect fill="#c99a32" x="-2.28" y="-14.39" transform="translate(627.24,1594.68) rotate(21.0)" width="4.56" height="28.78" rx="2.20"/>
<rect fill="#c99a32" x="-2.32" y="-8.75" transform="translate(429.12,1593.51) rotate(-30.0)" width="4.64" height="17.50" rx="2.26"/>
<ellipse fill="#c99a32" cx="0.00" cy="0.00" transform="translate(463.13,1593.98) rotate(-53.4)" rx="9.65" ry="2.51"/>
<rect fill="#c99a32" x="-1.71" y="-7.52" transform="translate(757.31,1597.28) rotate(-21.4)" width="3.42" height="15.04" rx="1.66"/>
<rect fill="#c99a32" x="-1.68" y="-7.95" transform="translate(1051.70,1597.65) rotate(-25.2)" width="3.36" height="15.90" rx="1.63"/>
<rect fill="#c99a32" x="-1.69" y="-7.22" transform="translate(749.15,1598.04) rotate(-12.9)" width="3.38" height="14.44" rx="1.45"/>
<rect fill="#c99a32" x="-1.69" y="-7.51" transform="translate(1042.65,1598.30) rotate(-16.0)" width="3.38" height="15.02" rx="1.64"/>
<rect fill="#c99a32" x="-1.67" y="-7.43" transform="translate(741.20,1598.79) rotate(-2.0)" width="3.34" height="14.86" rx="1.52"/>
<rect fill="#c99a32" x="-1.93" y="-9.42" transform="translate(731.71,1600.53) rotate(18.3)" width="3.86" height="18.84" rx="1.63"/>
<path fill="#c99a32" d="
  M 1025.68 1601.19
  C 1024.93 1603.52 1023.61 1605.98 1022.49 1608.20
  A 1.87 1.86 25.0 0 1 1020.08 1609.07
  L 1019.86 1608.97
  A 1.47 1.47 0.0 0 1 1019.21 1606.83
  C 1020.34 1605.08 1021.72 1602.66 1022.52 1600.17
  C 1023.32 1597.67 1023.61 1594.91 1023.72 1592.82
  A 1.47 1.47 0.0 0 1 1025.49 1591.47
  L 1025.73 1591.51
  A 1.87 1.86 10.6 0 1 1027.18 1593.63
  C 1026.79 1596.08 1026.43 1598.85 1025.68 1601.19
  Z"
/>
<rect fill="#c99a32" x="-1.71" y="-7.34" transform="translate(1033.88,1598.75) rotate(-4.0)" width="3.42" height="14.68" rx="1.45"/>
</svg>
